<svg version="1.1" id="Layer_1" xmlns="http://www.w3.org/2000/svg" xmlns:xlink="http://www.w3.org/1999/xlink" x="0px" y="0px"
	 width="100%" viewBox="0 0 246 248" enable-background="new 0 0 246 248" xml:space="preserve">
<path fill="#FFFEFD" opacity="1.000000" stroke="none" 
	d="
M30.264889,248.784882 
	C20.983604,249.000000 11.967026,249.022995 2.951217,248.950272 
	C2.324631,248.945206 0.831966,249.929703 1.000000,247.500000 
	C6.384009,240.553391 13.357691,235.891464 19.709473,230.556076 
	C35.645050,217.170471 51.677956,203.898117 67.835983,190.778549 
	C72.834145,186.720261 72.747208,186.108780 68.501854,180.763657 
	C47.061718,153.769440 25.675835,126.732201 4.267895,99.712456 
	C3.026785,98.146004 1.618030,96.687782 1.218445,94.273796 
	C1.000000,77.645775 1.000000,61.291546 1.000000,44.468658 
	C3.957846,43.544479 4.962095,46.001534 6.334111,47.727657 
	C35.052200,83.857620 63.868195,119.909584 92.783524,155.881454 
	C101.467995,166.685287 98.942902,165.229462 108.900002,157.660629 
	C112.743271,154.739182 116.343010,151.476578 120.253166,148.655640 
	C123.777946,146.112747 122.765022,143.920547 120.619423,141.228577 
	C113.343849,132.100281 106.601219,122.578018 100.337090,112.733231 
	C88.272400,93.772179 78.369339,73.911987 74.458000,51.456566 
	C71.617126,35.146786 72.750572,19.305653 78.895401,3.512553 
	C79.416397,2.526648 79.932404,2.007038 80.745079,1.261765 
	C91.354225,1.000000 101.708458,1.000000 112.531342,1.000000 
	C114.148598,2.390696 113.591362,3.878597 113.104080,5.261397 
	C108.462112,18.434267 110.062737,31.636915 113.656754,44.565556 
	C118.838036,63.203983 128.122528,79.911148 139.537140,95.456856 
	C140.096878,96.219185 140.539841,97.224319 142.336792,97.248734 
	C143.580444,90.401711 145.176590,83.516937 147.444977,76.794075 
	C158.538101,43.917110 193.520798,22.798983 227.797546,28.493353 
	C234.302216,29.573967 241.010956,30.143208 246.776215,34.681637 
	C247.000000,48.354229 247.000000,61.708454 247.000000,75.531342 
	C243.913605,76.799316 242.055847,74.512794 239.964523,73.047562 
	C232.981216,68.154922 225.662521,63.938553 217.685547,60.846611 
	C188.478180,49.525581 161.093628,70.195526 159.611984,97.625381 
	C158.937668,110.108971 162.389618,122.201805 169.725220,132.571243 
	C180.206070,147.386703 193.113602,159.851044 208.571579,169.460266 
	C218.695358,175.753555 229.533920,177.723251 241.069672,173.486313 
	C242.761032,172.865082 244.470078,172.029648 246.693497,172.774902 
	C247.000000,178.022095 247.000000,183.044189 247.000000,188.533142 
	C243.069168,196.340576 235.927505,199.455902 228.773361,202.103958 
	C213.244461,207.851852 197.933899,205.730972 183.093552,199.369858 
	C166.140961,192.103348 153.334366,179.416565 141.183167,166.079315 
	C138.372543,162.994324 136.674225,162.734940 133.538422,165.456757 
	C127.886803,170.362259 121.959900,174.956284 116.248657,179.805084 
	C114.327515,181.436096 113.365723,182.984222 115.261414,185.235779 
	C127.454926,199.718292 138.570190,215.281113 155.409485,225.087021 
	C162.833176,229.410019 170.505280,232.854507 179.397369,232.268021 
	C180.389359,232.202591 181.519028,232.178146 181.957153,233.299667 
	C182.396317,234.423782 181.511047,235.175537 180.781693,235.822586 
	C176.302185,239.796722 171.618698,243.539200 166.979370,247.868622 
	C166.001938,248.377487 165.285385,248.472412 164.283356,248.779388 
	C151.312439,249.000000 138.624878,249.000000 125.468658,249.000000 
	C124.644249,248.693359 124.245285,248.458801 123.504814,248.110077 
	C111.817947,234.502502 100.665016,220.878860 89.548073,207.229630 
	C87.037857,204.147614 85.341652,203.882141 82.334663,206.416687 
	C65.953957,220.223785 49.404976,233.830994 32.827206,247.929047 
	C31.900394,248.431992 31.207027,248.467728 30.264889,248.784882 
z"/>
<path fill="#F15B24" opacity="1.000000" stroke="none" 
	d="
M80.099030,2.654027 
	C68.775879,33.438034 75.125191,62.026165 88.712341,89.792053 
	C98.038773,108.850998 110.175674,126.145943 123.388367,142.673157 
	C125.529823,145.351822 125.276443,146.472504 122.700890,148.414627 
	C116.061928,153.420807 109.563309,158.625549 103.198616,163.976929 
	C100.611382,166.152267 99.183136,166.157608 96.957008,163.352005 
	C74.106178,134.553146 51.106258,105.872597 28.153019,77.154976 
	C19.326986,66.112404 10.513997,55.059395 1.347532,44.005569 
	C1.000000,30.312439 1.000000,16.624876 1.000000,2.468657 
	C2.051916,1.281707 3.249989,1.525127 4.394234,1.524523 
	C28.348883,1.511887 52.303547,1.508803 76.258179,1.532759 
	C77.544762,1.534046 78.942169,1.129643 80.099030,2.654027 
z"/>
<path fill="#F15B24" opacity="1.000000" stroke="none" 
	d="
M247.000000,172.531342 
	C246.062012,173.245682 245.072571,173.372971 244.193832,173.754929 
	C232.143265,178.992935 220.329895,178.037857 209.276184,171.410614 
	C192.199493,161.172318 177.843079,147.691681 167.264725,130.873932 
	C158.561676,117.037544 155.209503,101.582802 160.745667,85.513489 
	C168.548370,62.865192 191.640305,51.441887 214.552994,58.491875 
	C226.325882,62.114262 236.508377,68.687622 246.655182,75.963913 
	C247.000000,108.020897 247.000000,140.041794 247.000000,172.531342 
z"/>
<path fill="#F15B24" opacity="1.000000" stroke="none" 
	d="
M247.000000,34.531342 
	C213.893372,22.753548 182.667099,29.911768 161.208649,54.824722 
	C150.863937,66.834785 146.386948,81.350525 143.991867,96.676186 
	C143.764755,98.129471 144.027832,99.699593 142.757507,101.125854 
	C142.275833,100.777466 141.661667,100.518867 141.318512,100.058327 
	C126.997818,80.839119 114.826965,60.535061 110.470795,36.517014 
	C108.339638,24.766716 107.888504,13.016119 113.055283,1.381517 
	C127.687561,1.000000 142.375122,1.000000 157.531342,1.000000 
	C168.400192,2.150949 178.834930,1.205298 189.731842,1.514961 
	C208.848755,1.552287 227.482971,1.441162 246.558472,1.785362 
	C247.000000,12.687561 247.000000,23.375122 247.000000,34.531342 
z"/>
<path fill="#F15B24" opacity="1.000000" stroke="none" 
	d="
M165.582672,247.819397 
	C170.809036,242.866776 175.905090,238.355362 181.053299,233.797806 
	C160.933960,233.834152 146.938461,222.344421 133.991394,209.025803 
	C126.682610,201.507263 120.149269,193.296600 113.515167,185.178665 
	C111.522629,182.740463 111.863129,181.543839 114.225517,179.684738 
	C121.152496,174.233536 127.991844,168.652649 134.593155,162.814590 
	C137.379684,160.350266 138.618103,161.067245 140.766830,163.596451 
	C151.601593,176.349640 163.557007,187.975006 178.562378,195.724274 
	C197.057327,205.275696 216.076797,207.831329 235.413681,197.836761 
	C239.591400,195.677429 243.133713,192.656677 246.708191,189.160156 
	C247.000000,208.354233 247.000000,227.708450 247.000000,247.531342 
	C245.274796,248.922043 243.411072,248.455902 241.618744,248.461578 
	C217.034912,248.539276 192.450790,248.398529 167.433472,248.774918 
	C167.000000,249.000000 166.500000,249.000000 166.250000,249.000000 
	C165.817459,248.753540 165.634933,248.507080 165.582672,247.819397 
z"/>
<path fill="#F15B24" opacity="1.000000" stroke="none" 
	d="
M1.000000,94.468658 
	C20.502174,118.484215 40.008087,142.965454 59.503586,167.454971 
	C63.755890,172.796570 67.845413,178.274368 72.260902,183.476395 
	C74.209305,185.771866 74.246262,187.042969 71.824638,189.029480 
	C48.388336,208.255051 25.046232,227.595428 1.338612,246.951508 
	C1.000000,196.312439 1.000000,145.624878 1.000000,94.468658 
z"/>
<path fill="#F15B25" opacity="1.000000" stroke="none" 
	d="
M31.621435,247.908081 
	C49.215115,232.815186 66.680237,218.172256 84.025597,203.388840 
	C86.432487,201.337433 87.302513,202.724762 88.655426,204.371155 
	C100.383316,218.643021 112.153732,232.879944 124.010750,247.444122 
	C124.201195,247.977219 124.292397,248.193451 124.191795,248.704834 
	C124.000000,249.000000 123.500000,249.000000 123.250000,249.000000 
	C122.129333,248.330566 121.103844,248.489471 120.120972,248.490692 
	C91.366600,248.526215 62.612114,248.398926 33.428917,248.774841 
	C33.000000,249.000000 32.500000,249.000000 32.250000,249.000000 
	C31.818300,248.771164 31.636602,248.542343 31.621435,247.908081 
z"/>
<path fill="#F26533" opacity="1.000000" stroke="none" 
	d="
M33.468658,249.000000 
	C33.975357,247.744415 35.376400,248.009766 36.677319,248.009445 
	C64.612373,248.002426 92.547432,248.004333 120.482475,248.025894 
	C121.125717,248.026382 121.768753,248.273987 122.705948,248.703156 
	C93.312439,249.000000 63.624878,249.000000 33.468658,249.000000 
z"/>
<path fill="#F4794D" opacity="1.000000" stroke="none" 
	d="
M80.359222,2.958150 
	C78.568703,1.262763 76.423386,2.035444 74.536476,2.031464 
	C50.336838,1.980423 26.137056,1.998024 1.468657,1.999111 
	C1.890598,-0.056280 3.683425,1.065165 4.973037,1.060932 
	C30.002716,0.978769 55.032734,1.000000 80.531342,1.000001 
	C80.866341,1.588791 80.732674,2.177581 80.359222,2.958150 
z"/>
<path fill="#F26533" opacity="1.000000" stroke="none" 
	d="
M167.468658,249.000000 
	C168.647202,247.273712 170.773758,248.041534 172.676834,248.037323 
	C197.138687,247.983185 221.600708,248.001190 246.531342,248.000458 
	C246.109406,250.056274 244.316574,248.934814 243.026962,248.939056 
	C217.997284,249.021225 192.967270,249.000000 167.468658,249.000000 
z"/>
<path fill="#F36C3B" opacity="1.000000" stroke="none" 
	d="
M247.000000,1.500000 
	C228.315140,1.997325 209.630280,1.994651 190.477341,1.989993 
	C189.842087,1.824894 189.674911,1.661778 189.753876,1.249331 
	C209.000000,1.000000 228.000000,1.000000 247.000000,1.500000 
z"/>
<path fill="#F26530" opacity="1.000000" stroke="none" 
	d="
M189.531342,1.000000 
	C190.000000,1.000000 190.002548,1.494168 190.005905,1.741088 
	C179.536957,1.762975 169.052536,2.501911 158.294418,1.296486 
	C168.354233,1.000000 178.708450,1.000000 189.531342,1.000000 
z"/>
<path fill="#F26533" opacity="1.000000" stroke="none" 
	d="
M31.511530,247.625992 
	C31.834484,247.750626 31.880997,247.998611 31.963757,248.623291 
	C31.555555,249.000000 31.111113,249.000000 30.333336,249.000000 
	C30.411699,248.583115 30.823395,248.166229 31.511530,247.625992 
z"/>
<path fill="#F26533" opacity="1.000000" stroke="none" 
	d="
M165.441666,247.517914 
	C165.774124,247.646133 165.835281,247.914078 165.948212,248.591003 
	C165.555557,249.000000 165.111099,249.000000 164.333313,249.000000 
	C164.390121,248.552551 164.780243,248.105103 165.441666,247.517914 
z"/>
<path fill="#F26533" opacity="1.000000" stroke="none" 
	d="
M124.250000,249.000000 
	C124.006836,248.792953 124.013680,248.585922 124.065262,248.069916 
	C124.383301,247.992065 124.656593,248.223175 124.964943,248.727142 
	C125.000000,249.000000 124.500000,249.000000 124.250000,249.000000 
z"/>
</svg>