<svg version="1.1" id="Layer_1" xmlns="http://www.w3.org/2000/svg" xmlns:xlink="http://www.w3.org/1999/xlink" x="0px" y="0px"
	 width="100%" viewBox="0 0 260 260" enable-background="new 0 0 260 260" xml:space="preserve">
<path fill="#02539D" opacity="1.000000" stroke="none" 
	d="
M260.781433,225.589294 
	C261.000000,226.750000 261.000000,227.500000 261.000000,228.625000 
	C259.537018,235.392319 258.460083,241.808029 253.985870,247.181107 
	C247.296097,255.214859 239.401260,260.502899 228.310028,260.778748 
	C162.979111,261.000000 97.958214,261.000000 32.468658,261.000000 
	C27.013096,259.452026 21.729788,259.071747 17.217693,255.787308 
	C7.882789,248.992264 1.718952,240.569077 1.220834,228.308228 
	C1.000000,163.312439 1.000000,98.624878 1.000000,33.468658 
	C2.296882,26.001610 3.890011,19.239929 8.874832,13.611366 
	C15.471171,6.163169 23.227795,1.510388 33.689461,1.221402 
	C98.687561,1.000000 163.375122,1.000000 228.531342,1.000000 
	C240.371964,2.185006 249.026199,7.675700 255.618744,17.012735 
	C259.386383,22.348888 259.967316,28.292513 260.778290,34.687881 
	C261.000000,86.020897 261.000000,137.041794 261.000000,188.531342 
	C259.875031,198.557709 260.779907,208.150543 260.514648,217.723618 
	C260.445862,220.205933 260.433075,222.694366 260.781433,225.589294 
z"/>
<path fill="#FAFCFD" opacity="1.000000" stroke="none" 
	d="
M261.000000,34.531342 
	C259.891510,31.778547 259.002075,28.460827 257.636108,25.352526 
	C252.113922,12.786600 242.492630,5.040460 229.120529,1.351783 
	C238.767685,1.000000 248.537552,1.112389 258.301483,0.921094 
	C260.746979,0.873182 261.094360,1.516682 261.062439,3.767201 
	C260.919098,13.863955 261.000000,23.963894 261.000000,34.531342 
z"/>
<path fill="#FBFCFD" opacity="1.000000" stroke="none" 
	d="
M228.468658,261.000000 
	C231.867050,258.959320 236.280014,258.391998 240.135666,256.185547 
	C250.804031,250.080475 256.871948,240.666031 260.650330,229.107697 
	C261.000000,238.766663 260.889038,248.535477 261.078186,258.298462 
	C261.125366,260.734344 260.496277,261.097595 258.236359,261.063324 
	C248.471924,260.915283 238.703979,261.000000 228.468658,261.000000 
z"/>
<path fill="#FBFCFD" opacity="1.000000" stroke="none" 
	d="
M1.000000,228.468658 
	C2.924972,230.537186 2.975027,233.773926 4.228691,236.588776 
	C9.700329,248.874237 19.185490,256.378448 31.899345,260.650940 
	C22.565426,261.000000 13.128462,260.884277 3.697908,261.078979 
	C1.252108,261.129486 0.903960,260.483246 0.937530,258.233215 
	C1.083199,248.469788 1.000000,238.702927 1.000000,228.468658 
z"/>
<path fill="#FBFCFD" opacity="1.000000" stroke="none" 
	d="
M33.531342,1.000000 
	C30.695787,2.246998 27.294210,3.285873 24.104681,4.778014 
	C12.067388,10.409364 5.206632,20.267696 1.349684,32.885033 
	C1.000000,23.233337 1.110992,13.464524 0.921834,3.701527 
	C0.874639,1.265656 1.503745,0.902390 3.763657,0.936649 
	C13.528075,1.084669 23.296021,1.000000 33.531342,1.000000 
z"/>
<path fill="#236AA9" opacity="1.000000" stroke="none" 
	d="
M261.000000,225.531342 
	C260.698730,225.427292 260.131775,224.852859 260.135437,224.282104 
	C260.209381,212.745850 259.408966,201.198502 260.759979,189.337311 
	C261.000000,201.020889 261.000000,213.041794 261.000000,225.531342 
z"/>
<path fill="#FEFEFF" opacity="1.000000" stroke="none" 
	d="
M74.498215,100.500565 
	C65.026489,110.138214 55.888622,119.612068 46.520500,128.852478 
	C44.270752,131.071548 44.566879,132.156067 46.626289,134.220764 
	C61.214672,148.846588 75.708908,163.567154 90.151642,178.337204 
	C104.882355,193.401779 105.908813,212.379196 92.760307,227.066788 
	C87.284355,233.183746 80.347824,237.051376 72.372025,238.947800 
	C64.657722,240.782059 56.770626,240.555298 48.998459,239.886292 
	C39.770973,239.092026 31.850620,230.509216 30.970949,221.237976 
	C30.751034,218.920181 30.708017,216.578491 30.709337,214.247864 
	C30.741402,157.592865 30.770004,100.937843 30.851257,44.282898 
	C30.871029,30.496357 39.487679,21.857656 53.197498,21.714212 
	C59.195786,21.651451 65.195778,21.653309 71.194115,21.713575 
	C85.317802,21.855474 95.367943,28.752838 101.201134,41.226768 
	C107.209167,54.074623 105.893761,66.754112 96.658371,77.661980 
	C89.895531,85.649544 82.088966,92.753403 74.498215,100.500565 
z"/>
<path fill="#FDFEFE" opacity="1.000000" stroke="none" 
	d="
M87.161606,129.239899 
	C97.265907,118.825912 107.253281,108.791649 116.952560,98.486237 
	C130.419281,84.177948 133.386154,66.668961 131.493179,47.918823 
	C130.583282,38.906235 127.706276,30.443331 122.761154,22.721996 
	C141.996323,16.327847 163.744141,23.737669 172.252563,39.380814 
	C179.452606,52.618431 177.465118,68.705025 167.010376,79.549011 
	C151.523911,95.612061 135.968735,111.611008 120.252274,127.448151 
	C117.532639,130.188675 117.437019,131.547241 120.211403,134.359253 
	C152.726990,167.315811 185.095398,200.417618 217.487045,233.496384 
	C221.316177,237.406723 221.206818,237.606491 216.015747,239.149033 
	C213.579285,239.873032 211.115784,240.006088 208.608871,240.005173 
	C180.791656,239.994949 152.973633,239.892624 125.157967,240.100540 
	C120.362869,240.136368 120.589844,238.721619 122.081955,235.145126 
	C127.226044,222.815079 131.635971,210.315613 130.061050,196.536453 
	C128.404144,182.040161 123.413208,169.198105 112.819885,158.760513 
	C104.398621,150.463028 96.223564,141.914993 87.981964,133.436646 
	C86.968300,132.393860 84.802086,131.468964 87.161606,129.239899 
z"/>
<path fill="#FEFEFF" opacity="1.000000" stroke="none" 
	d="
M192.892120,93.837944 
	C208.213684,69.921028 207.013702,45.954906 194.468399,21.172371 
	C201.032135,21.482674 207.469269,21.320343 213.762650,22.193790 
	C223.222977,23.506775 231.042175,32.384670 231.065979,42.000851 
	C231.200806,96.439766 231.131195,150.879196 231.131195,205.651093 
	C228.984909,205.283005 228.101639,203.563446 226.949646,202.396378 
	C204.381134,179.532104 181.907578,156.573776 159.261871,133.786484 
	C156.791824,131.301010 157.287567,130.124222 159.442429,127.966026 
	C170.614258,116.776871 181.632401,105.434250 192.892120,93.837944 
z"/>
</svg>