<svg width="17" height="18" viewBox="0 0 17 18" fill="none" xmlns="http://www.w3.org/2000/svg">
<g id="Group">
<path id="Vector" d="M12.3025 15.165L12.5572 15.0909L12.2779 14.7033L12.3025 15.165ZM8.12046 15.0991L8.07119 15.4455C8.19798 15.4331 8.35407 15.5428 8.41629 15.297C8.41162 15.1055 8.26639 15.095 8.12046 15.0991ZM10.15 15.0909C10.1288 14.9965 10.0504 14.927 9.85412 14.9919L9.91985 15.3465C10.0811 15.3106 10.164 15.2148 10.15 15.0909ZM5.56527 14.8007L5.48682 15.1157C5.6129 15.121 5.76058 15.2236 5.84429 15.0369C5.84989 14.92 5.85468 14.8035 5.56527 14.8007ZM9.9774 15.6105L10.035 15.9735C10.1696 15.9769 10.2924 15.8956 10.2568 15.7261C10.2224 15.5629 10.086 15.5887 9.9774 15.6105Z" fill="#005FAF"/>
<path id="Vector_2" d="M15.3209 2.15759C10.9701 -0.0673934 5.77419 -0.00551325 1.62882 2.06055C-0.508775 5.83816 -0.576838 11.1236 1.62882 15.8049C6.19576 18.125 11.2468 17.9721 15.353 15.902C17.2828 11.9275 17.6015 7.14491 15.3209 2.15759ZM7.97296 13.4376L7.71507 13.4405C7.65121 12.7251 7.48088 12.1239 7.11547 11.6638C5.43983 9.55436 2.01454 11.1425 2.89468 7.55756C3.35232 5.72483 8.57233 4.64393 7.97296 13.4376ZM2.90087 9.89681C3.26675 10.6444 5.55903 10.7669 6.35476 11.3392C7.617 12.2468 7.43582 13.4408 7.43582 13.4408H7.13812C6.55206 11.6375 4.90724 13.0653 3.58978 12.5797C2.76264 12.2843 2.16211 11.0042 2.90087 9.89681ZM7.07729 15.7755L7.20058 14.794L7.42239 14.8105L7.32374 15.891C7.22428 16.3669 6.51739 16.3033 6.42819 15.8497L6.54319 14.728L6.8061 14.7694L6.6911 15.7095C6.7057 16.0207 7.01659 16.0021 7.07729 15.7755ZM5.89689 16.0436L5.64402 15.9823C5.67367 15.7725 5.92152 15.3456 5.43166 15.3456L5.2953 15.9035L5.01628 15.851L5.3127 14.5118C6.03722 14.591 6.10061 14.7934 6.11497 15.0107C6.08637 15.1792 6.04165 15.2969 5.89701 15.3257C6.06629 15.48 5.89899 15.8032 5.89689 16.0436ZM4.29083 14.5436C4.22114 14.6364 4.08163 14.9607 4.06143 15.2191C4.03995 15.493 4.30204 15.4353 4.3673 15.4033C4.41995 15.3776 4.45906 15.1577 4.45906 15.1577L4.27554 15.0963L4.33671 14.9121L4.74976 15.0503L4.55094 15.7413L4.38271 15.6951L4.398 15.5877C4.19207 15.6819 3.8151 15.6112 3.77085 15.3727C3.7266 15.1811 3.86063 14.6002 4.07672 14.3287C4.28675 14.0648 4.79844 14.3228 4.81093 14.4823C4.8233 14.6412 4.76085 14.82 4.76085 14.82L4.56822 14.7836C4.56822 14.7836 4.58001 14.7261 4.59682 14.6357C4.61456 14.5398 4.36555 14.4438 4.29083 14.5436ZM8.04686 15.6682L7.99759 16.2621L7.79224 16.2539L7.86614 14.8435C8.379 14.8541 8.67296 14.9254 8.66315 15.2889C8.63257 15.7856 8.2319 15.6739 8.04686 15.6682ZM8.55808 13.4407H8.2145C8.18403 12.2193 8.41799 9.98518 7.7787 8.34102C7.29432 7.09463 6.0685 6.53396 5.79684 5.52712C5.36675 3.93348 6.09874 2.20916 8.55808 2.07637C10.6902 2.29612 11.3452 3.94848 10.9816 5.48692C10.3563 7.02513 9.7309 6.8041 8.95233 8.33633C8.31642 9.97885 8.55855 12.1307 8.55808 13.4407ZM12.3685 15.7012L12.1302 15.7837L12.0562 14.3651L12.3356 14.2909L13.0258 15.462L12.8368 15.5858L12.6067 15.256L12.3438 15.3549L12.3685 15.7012ZM9.58871 13.4407H9.31389C9.54037 10.3038 13.4671 10.9853 13.826 9.89681C14.4466 10.976 14.2235 11.8859 13.5754 12.3523C11.965 13.5119 10.4209 11.4942 9.58871 13.4407ZM11.0458 15.025L11.1691 15.6766C11.2458 15.8267 11.2978 15.799 11.4155 15.7838C11.552 15.6847 11.5235 15.5881 11.4977 15.4621L11.736 15.4292C11.7981 15.9013 11.5745 15.9494 11.4074 15.9818C11.0488 16.0076 10.9786 15.9375 10.8815 15.4705C10.825 15.0707 10.7274 14.6486 11.0623 14.5714C11.6119 14.4872 11.5794 14.7355 11.6292 14.9096L11.3909 14.9509C11.3528 14.8014 11.2981 14.7421 11.1773 14.7531C11.0672 14.8038 11.022 14.886 11.0458 15.025ZM10.5446 15.7012C10.5561 15.9067 10.4866 16.0431 10.3556 16.0889L9.79686 16.2043L9.57505 14.8435C9.68969 14.8247 10.2518 14.618 10.3884 14.9921C10.4558 15.2205 10.386 15.3024 10.3062 15.4044C10.4574 15.4531 10.5084 15.5712 10.5446 15.7012ZM9.10982 8.8718C10.3546 5.35355 13.2028 5.97528 13.8345 7.55767C14.6999 10.7329 11.9132 9.86212 10.1282 11.1642C9.45352 11.7532 9.0985 12.429 9.09324 13.4534H8.78737C8.76904 11.39 8.73577 9.92892 9.10982 8.8718Z" fill="#005FAF"/>
</g>
</svg>
