<svg version="1.1" id="Layer_1" xmlns="http://www.w3.org/2000/svg" xmlns:xlink="http://www.w3.org/1999/xlink" x="0px" y="0px"
	 width="100%" viewBox="0 0 356 400" enable-background="new 0 0 356 400" xml:space="preserve">
<path fill="#FEFFFF" opacity="1.000000" stroke="none" 
	d="
M1.000001,131.000000 
	C1.000000,87.733513 1.000000,44.467022 1.000000,1.000000 
	C52.020718,1.000000 103.041702,1.000000 154.331863,1.388000 
	C152.957458,1.851287 151.314545,1.970020 149.670197,1.995091 
	C134.501907,2.226360 119.333351,2.441438 103.829468,2.567652 
	C101.919350,5.301930 100.344635,8.129785 98.797699,11.351759 
	C122.513657,80.015282 146.175751,148.293793 170.010483,216.511978 
	C170.757980,218.651382 173.287857,220.168045 175.351532,222.085602 
	C177.316467,220.320786 179.742691,218.695145 180.396347,216.533508 
	C197.829926,158.880966 215.104507,101.180244 232.342651,43.468769 
	C235.656830,32.373291 238.706360,21.198772 241.834534,9.727902 
	C239.194046,6.596724 236.597031,3.798362 234.000000,1.000000 
	C274.928711,1.000000 315.857422,1.000000 357.000000,1.000000 
	C357.000000,43.687325 357.000000,86.375000 356.798828,129.322876 
	C356.059387,129.410233 355.521149,129.237411 354.692261,128.864227 
	C335.250519,119.826012 316.119995,110.943199 296.941193,102.165787 
	C283.813599,96.157784 270.618835,90.296608 257.427307,84.369766 
	C257.400482,84.369743 257.350189,84.352287 257.193146,84.169525 
	C256.756073,83.805862 256.449402,83.718536 255.879059,83.502228 
	C252.482864,85.196098 249.323654,87.112534 246.018982,89.392380 
	C238.273209,123.814682 230.637436,157.865723 223.080170,191.934158 
	C208.433044,257.963867 193.794830,323.995667 179.331116,390.065613 
	C178.719894,392.857574 179.899689,396.041595 180.273666,399.315033 
	C180.534805,400.058075 180.767395,400.529022 181.000000,401.000000 
	C121.059830,401.000000 61.119663,401.000000 1.000000,401.000000 
	C1.000000,314.979187 1.000000,228.958252 1.303532,142.610077 
	C35.693077,182.281586 69.780266,222.279358 103.864594,262.279572 
	C121.228699,282.657501 138.578644,303.047485 155.960541,323.410217 
	C158.090378,325.905334 160.261017,328.609283 164.494507,326.215576 
	C168.310806,323.905090 167.741806,320.897614 166.722717,317.501526 
	C150.379822,263.037964 134.139496,208.543640 117.809456,154.076202 
	C111.988373,134.660507 105.990517,115.297829 99.986443,95.581345 
	C97.605659,93.624962 95.429817,91.782211 92.978928,90.442764 
	C91.161385,89.449448 88.986519,89.109955 86.634125,88.642792 
	C86.166901,89.196449 86.036362,89.586533 85.942047,89.954590 
	C85.978287,89.932571 85.932175,89.861412 85.599503,89.631699 
	C65.967392,99.041801 46.687599,108.721207 27.359669,118.303520 
	C18.622461,122.635223 9.789515,126.773811 1.000001,131.000000 
z"/>
<path fill="#FFFFFF" opacity="1.000000" stroke="none" 
	d="
M357.000000,146.000000 
	C357.000000,230.913254 357.000000,315.826508 357.000000,401.000000 
	C299.312714,401.000000 241.625015,401.000000 183.537186,400.819153 
	C183.137054,400.638336 183.074707,400.256653 183.464157,400.220276 
	C187.561325,399.888702 190.102615,398.194733 192.245422,394.938599 
	C239.193115,323.598480 286.236237,252.321182 333.311676,181.065262 
	C341.086578,169.296753 349.097931,157.684479 357.000000,146.000000 
z"/>
<path fill="#6F9224" opacity="1.000000" stroke="none" 
	d="
M357.000000,145.666687 
	C349.097931,157.684479 341.086578,169.296753 333.311676,181.065262 
	C286.236237,252.321182 239.193115,323.598480 192.245422,394.938599 
	C190.102615,398.194733 187.561325,399.888702 183.439453,399.820129 
	C183.119431,398.801910 183.076553,398.088959 183.327454,397.501465 
	C193.374664,373.973907 203.432922,350.451050 213.523132,326.941895 
	C223.941177,302.668976 234.415344,278.420135 244.825150,254.143692 
	C256.477448,226.969589 268.132874,199.796616 279.681763,172.578537 
	C282.978058,164.810013 285.908905,156.886414 289.466949,149.036682 
	C296.184875,148.643860 302.448730,148.320724 308.700348,147.838562 
	C324.803131,146.596588 340.900482,145.284241 357.000000,144.000000 
	C357.000000,144.444443 357.000000,144.888901 357.000000,145.666687 
z"/>
<path fill="#80B13B" opacity="1.000000" stroke="none" 
	d="
M289.007324,149.033936 
	C285.908905,156.886414 282.978058,164.810013 279.681763,172.578537 
	C268.132874,199.796616 256.477448,226.969589 244.825150,254.143692 
	C234.415344,278.420135 223.941177,302.668976 213.523132,326.941895 
	C203.432922,350.451050 193.374664,373.973907 183.327454,397.501465 
	C183.076553,398.088959 183.119431,398.801910 183.050003,399.856506 
	C183.074707,400.256653 183.137054,400.638336 183.068527,400.819153 
	C182.555557,401.000000 182.111099,401.000000 181.333313,401.000000 
	C180.767395,400.529022 180.534805,400.058075 180.602600,399.192749 
	C181.143097,398.577759 181.512100,398.401245 181.604935,398.130157 
	C192.084442,367.534241 202.540543,336.930298 213.004089,306.328888 
	C226.853912,265.824036 240.743546,225.332764 254.543610,184.810989 
	C259.834473,169.275131 264.925598,153.671234 270.474243,138.064072 
	C275.688232,135.805069 280.535706,133.580338 285.817993,131.156052 
	C277.835480,118.670403 270.371246,107.179726 263.126312,95.552391 
	C260.924530,92.018684 259.327911,88.107880 257.454102,84.369797 
	C270.618835,90.296608 283.813599,96.157784 296.941193,102.165787 
	C316.119995,110.943199 335.250519,119.826012 354.395081,129.154846 
	C331.700836,130.276581 309.013214,130.907349 286.284485,131.539261 
	C287.243683,137.702286 288.125519,143.368118 289.007324,149.033936 
z"/>
<path fill="#035A75" opacity="1.000000" stroke="none" 
	d="
M164.124115,326.220642 
	C160.261017,328.609283 158.090378,325.905334 155.960541,323.410217 
	C138.578644,303.047485 121.228699,282.657501 103.864594,262.279572 
	C69.780266,222.279358 35.693077,182.281586 1.303532,142.141418 
	C1.000000,142.000000 1.000000,141.500000 1.428118,141.248871 
	C5.265635,141.510040 8.691051,141.934235 12.081524,142.550629 
	C23.723932,144.667221 35.354107,146.851105 47.143124,149.310425 
	C54.432224,160.426758 61.573204,171.238007 68.701012,182.057938 
	C97.760445,226.169754 126.807762,270.289551 155.903152,314.377625 
	C157.029770,316.084778 158.603546,317.496796 159.979630,319.031311 
	C159.990295,319.016296 159.969391,319.027130 159.942139,319.374268 
	C160.603027,320.827209 161.291153,321.933014 161.992096,323.021118 
	C162.004898,323.003418 161.961441,323.007446 162.059357,323.245148 
	C162.435287,323.667664 162.713303,323.852478 162.996399,324.015747 
	C163.001480,323.994263 162.958664,324.005188 162.967712,324.303894 
	C163.302521,325.061493 163.628296,325.520386 163.979248,326.051819 
	C164.004440,326.124359 164.124115,326.220642 164.124115,326.220642 
z"/>
<path fill="#D71A36" opacity="1.000000" stroke="none" 
	d="
M104.164879,2.661227 
	C119.333351,2.441438 134.501907,2.226360 149.670197,1.995091 
	C151.314545,1.970020 152.957458,1.851287 154.800522,1.388000 
	C162.020950,1.000000 169.041901,1.000000 176.741119,1.368585 
	C180.933823,1.770778 184.448242,1.804386 188.417236,1.910346 
	C192.581192,1.655132 196.290604,1.327566 200.000000,1.000000 
	C208.020905,1.000000 216.041809,1.000000 224.737976,1.248674 
	C226.321564,1.788219 227.229874,2.079090 228.949371,2.629725 
	C205.347672,9.977174 182.490173,17.092947 158.787155,24.471937 
	C164.319824,28.635536 169.172409,32.287350 174.016327,36.413902 
	C174.332016,60.012638 174.828629,83.135803 174.940247,106.260834 
	C175.106766,140.755402 175.015305,175.251312 174.973114,209.746582 
	C174.970993,211.486847 174.396957,213.226410 174.058716,214.539627 
	C172.645386,203.603790 171.331192,193.085068 169.866196,182.587387 
	C166.272354,156.835266 162.613525,131.092209 158.972275,105.346718 
	C155.655960,81.898575 152.328384,58.452019 149.308655,34.863167 
	C152.449753,31.580545 155.287933,28.439522 158.726074,24.634529 
	C151.734665,21.856676 145.621719,19.459770 139.533356,17.002003 
	C127.736557,12.239847 115.953583,7.443439 104.164879,2.661227 
z"/>
<path fill="#0297B9" opacity="1.000000" stroke="none" 
	d="
M159.968964,319.046356 
	C158.603546,317.496796 157.029770,316.084778 155.903152,314.377625 
	C126.807762,270.289551 97.760445,226.169754 68.701012,182.057938 
	C61.573204,171.238007 54.432224,160.426758 47.166306,148.888794 
	C47.353725,144.890778 47.961819,141.604156 47.834503,138.346283 
	C47.789536,137.195526 46.021271,135.227432 44.916172,135.136597 
	C30.290316,133.934509 15.642402,133.000778 1.000000,132.000000 
	C1.000000,132.000000 1.000000,131.500000 1.000001,131.250000 
	C9.789515,126.773811 18.622461,122.635223 27.359669,118.303520 
	C46.687599,108.721207 65.967392,99.041801 85.499733,89.958389 
	C73.373299,105.263702 61.013950,120.012627 48.146412,135.367996 
	C54.553677,137.890350 59.772568,139.944855 65.032852,142.357147 
	C65.765106,144.223785 66.368034,145.780533 67.159760,147.234482 
	C85.115196,180.208237 103.082825,213.175354 121.066948,246.133469 
	C130.615784,263.632874 140.268341,281.076141 149.733337,298.620636 
	C153.347565,305.320038 156.568695,312.231537 159.968964,319.046356 
z"/>
<path fill="#A5C450" opacity="1.000000" stroke="none" 
	d="
M289.466949,149.036682 
	C288.125519,143.368118 287.243683,137.702286 286.284485,131.539261 
	C309.013214,130.907349 331.700836,130.276581 354.685669,129.355194 
	C355.521149,129.237411 356.059387,129.410233 356.798828,129.791534 
	C357.000000,134.356903 357.000000,138.713806 357.000000,143.535355 
	C340.900482,145.284241 324.803131,146.596588 308.700348,147.838562 
	C302.448730,148.320724 296.184875,148.643860 289.466949,149.036682 
z"/>
<path fill="#DC4F5D" opacity="1.000000" stroke="none" 
	d="
M174.025009,35.939163 
	C169.172409,32.287350 164.319824,28.635536 158.787155,24.471937 
	C182.490173,17.092947 205.347672,9.977174 228.949371,2.629725 
	C227.229874,2.079090 226.321564,1.788219 225.206619,1.248674 
	C227.700012,1.000000 230.400024,1.000000 233.550018,1.000000 
	C236.597031,3.798362 239.194046,6.596724 241.507553,9.869011 
	C235.346146,12.555000 229.459503,14.744131 223.592041,16.983500 
	C207.065475,23.291002 190.546799,29.619158 174.025009,35.939163 
z"/>
<path fill="#007592" opacity="1.000000" stroke="none" 
	d="
M1.000000,132.449982 
	C15.642402,133.000778 30.290316,133.934509 44.916172,135.136597 
	C46.021271,135.227432 47.789536,137.195526 47.834503,138.346283 
	C47.961819,141.604156 47.353725,144.890778 47.012127,148.587708 
	C35.354107,146.851105 23.723932,144.667221 12.081524,142.550629 
	C8.691051,141.934235 5.265635,141.510040 1.428118,140.998871 
	C1.000000,138.299988 1.000000,135.599976 1.000000,132.449982 
z"/>
<path fill="#EC929F" opacity="1.000000" stroke="none" 
	d="
M199.539368,1.000000 
	C196.290604,1.327566 192.581192,1.655132 188.429810,1.701057 
	C187.987823,1.419417 188.000000,1.000000 188.000000,1.000000 
	C191.692902,1.000000 195.385818,1.000000 199.539368,1.000000 
z"/>
<path fill="#F2AEB9" opacity="1.000000" stroke="none" 
	d="
M187.541931,1.000000 
	C188.000000,1.000000 187.987823,1.419417 187.975250,1.628706 
	C184.448242,1.804386 180.933823,1.770778 177.209702,1.368585 
	C180.361282,1.000000 183.722580,1.000000 187.541931,1.000000 
z"/>
<path fill="#B32C38" opacity="1.000000" stroke="none" 
	d="
M174.016327,36.413902 
	C190.546799,29.619158 207.065475,23.291002 223.592041,16.983500 
	C229.459503,14.744131 235.346146,12.555000 241.551010,10.201828 
	C238.706360,21.198772 235.656830,32.373291 232.342651,43.468769 
	C215.104507,101.180244 197.829926,158.880966 180.396347,216.533508 
	C179.742691,218.695145 177.316467,220.320786 175.352646,221.688080 
	C174.689087,219.108734 174.389145,217.037521 174.089203,214.966309 
	C174.396957,213.226410 174.970993,211.486847 174.973114,209.746582 
	C175.015305,175.251312 175.106766,140.755402 174.940247,106.260834 
	C174.828629,83.135803 174.332016,60.012638 174.016327,36.413902 
z"/>
<path fill="#017692" opacity="1.000000" stroke="none" 
	d="
M159.979630,319.031311 
	C156.568695,312.231537 153.347565,305.320038 149.733337,298.620636 
	C140.268341,281.076141 130.615784,263.632874 121.066948,246.133469 
	C103.082825,213.175354 85.115196,180.208237 67.159760,147.234482 
	C66.368034,145.780533 65.765106,144.223785 65.195610,142.063812 
	C67.231705,138.902710 69.144875,136.391510 71.061394,133.882889 
	C80.731560,121.225197 90.402611,108.568192 100.073349,95.910950 
	C105.990517,115.297829 111.988373,134.660507 117.809456,154.076202 
	C134.139496,208.543640 150.379822,263.037964 166.722717,317.501526 
	C167.741806,320.897614 168.310806,323.905090 164.494507,326.215576 
	C164.124115,326.220642 164.004440,326.124359 163.974442,325.752686 
	C163.615860,324.922394 163.287262,324.463776 162.958664,324.005188 
	C162.958664,324.005188 163.001480,323.994263 162.895599,323.781036 
	C162.513641,323.381012 162.237534,323.194244 161.961441,323.007446 
	C161.961441,323.007446 162.004898,323.003418 162.003937,322.667389 
	C161.325104,321.229950 160.647247,320.128540 159.969391,319.027130 
	C159.969391,319.027130 159.990295,319.016296 159.979630,319.031311 
z"/>
<path fill="#407A38" opacity="1.000000" stroke="none" 
	d="
M270.107727,138.098328 
	C264.925598,153.671234 259.834473,169.275131 254.543610,184.810989 
	C240.743546,225.332764 226.853912,265.824036 213.004089,306.328888 
	C202.540543,336.930298 192.084442,367.534241 181.604935,398.130157 
	C181.512100,398.401245 181.143097,398.577759 180.574066,398.920685 
	C179.899689,396.041595 178.719894,392.857574 179.331116,390.065613 
	C193.794830,323.995667 208.433044,257.963867 223.080170,191.934158 
	C230.637436,157.865723 238.273209,123.814682 246.269958,89.613251 
	C254.480164,105.679916 262.293945,121.889122 270.107727,138.098328 
z"/>
<path fill="#772726" opacity="1.000000" stroke="none" 
	d="
M174.058716,214.539627 
	C174.389145,217.037521 174.689087,219.108734 174.987915,221.577484 
	C173.287857,220.168045 170.757980,218.651382 170.010483,216.511978 
	C146.175751,148.293793 122.513657,80.015282 99.174866,11.393147 
	C108.129234,15.261064 116.718704,19.513729 125.343773,23.692923 
	C133.211044,27.504929 141.116913,31.237295 149.005768,35.004761 
	C152.328384,58.452019 155.655960,81.898575 158.972275,105.346718 
	C162.613525,131.092209 166.272354,156.835266 169.866196,182.587387 
	C171.331192,193.085068 172.645386,203.603790 174.058716,214.539627 
z"/>
<path fill="#2FB7E6" opacity="1.000000" stroke="none" 
	d="
M99.986435,95.581345 
	C90.402611,108.568192 80.731560,121.225197 71.061394,133.882889 
	C69.144875,136.391510 67.231705,138.902710 65.154221,141.706055 
	C59.772568,139.944855 54.553677,137.890350 48.146412,135.367996 
	C61.013950,120.012627 73.373299,105.263702 85.832413,90.188095 
	C85.932175,89.861412 85.978287,89.932571 86.220490,89.793449 
	C86.632065,89.262627 86.801445,88.870918 86.970818,88.479218 
	C88.986519,89.109955 91.161385,89.449448 92.978928,90.442764 
	C95.429817,91.782211 97.605659,93.624962 99.986435,95.581345 
z"/>
<path fill="#5D8C28" opacity="1.000000" stroke="none" 
	d="
M270.474243,138.064072 
	C262.293945,121.889122 254.480164,105.679916 246.415405,89.249840 
	C249.323654,87.112534 252.482864,85.196098 255.969299,83.783401 
	C256.647736,84.308861 256.998962,84.330574 257.350189,84.352287 
	C257.350189,84.352287 257.400482,84.369743 257.427307,84.369774 
	C259.327911,88.107880 260.924530,92.018684 263.126312,95.552391 
	C270.371246,107.179726 277.835480,118.670403 285.817993,131.156052 
	C280.535706,133.580338 275.688232,135.805069 270.474243,138.064072 
z"/>
<path fill="#AF2C35" opacity="1.000000" stroke="none" 
	d="
M149.308655,34.863167 
	C141.116913,31.237295 133.211044,27.504929 125.343773,23.692923 
	C116.718704,19.513729 108.129234,15.261064 99.147079,10.999025 
	C100.344635,8.129785 101.919350,5.301930 103.829468,2.567652 
	C115.953583,7.443439 127.736557,12.239847 139.533356,17.002003 
	C145.621719,19.459770 151.734665,21.856676 158.726074,24.634529 
	C155.287933,28.439522 152.449753,31.580545 149.308655,34.863167 
z"/>
<path fill="#0297B9" opacity="1.000000" stroke="none" 
	d="
M86.634125,88.642792 
	C86.801445,88.870918 86.632065,89.262627 86.184250,89.815468 
	C86.036362,89.586533 86.166901,89.196449 86.634125,88.642792 
z"/>
<path fill="#80B13B" opacity="1.000000" stroke="none" 
	d="
M257.193146,84.169525 
	C256.998962,84.330574 256.647736,84.308861 256.206268,84.005966 
	C256.449402,83.718536 256.756073,83.805862 257.193146,84.169525 
z"/>
<path fill="#008DAD" opacity="1.000000" stroke="none" 
	d="
M159.942139,319.374268 
	C160.647247,320.128540 161.325104,321.229950 161.991119,322.685089 
	C161.291153,321.933014 160.603027,320.827209 159.942139,319.374268 
z"/>
<path fill="#008DAD" opacity="1.000000" stroke="none" 
	d="
M162.967712,324.303894 
	C163.287262,324.463776 163.615860,324.922394 163.949249,325.680115 
	C163.628296,325.520386 163.302521,325.061493 162.967712,324.303894 
z"/>
<path fill="#008DAD" opacity="1.000000" stroke="none" 
	d="
M162.059357,323.245148 
	C162.237534,323.194244 162.513641,323.381012 162.890518,323.802551 
	C162.713303,323.852478 162.435287,323.667664 162.059357,323.245148 
z"/>
</svg>