<svg width="18" height="18" viewBox="0 0 18 18" fill="none" xmlns="http://www.w3.org/2000/svg">
<g id="Logo_Bank_Rakyat_Indonesia 1" clip-path="url(#clip0_2551_2353)">
<g id="layer1">
<path id="path248" d="M15.252 -0.000289917H2.74873C1.23052 -0.000289917 0 1.25958 0 2.81375V2.84333V15.1864C0 16.7254 1.20774 17.977 2.70622 17.9997H15.2452C16.7634 17.9997 17.9947 16.7406 17.9947 15.1864L18 2.81375C18 1.25958 16.7702 -0.000289917 15.252 -0.000289917ZM4.23431 16.5578L3.55263 16.5654C2.72672 16.5654 2.05719 15.8873 2.05719 15.0507L2.05339 14.9316V3.5055L2.05795 2.8896C2.08907 2.08028 2.70471 1.42948 3.51012 1.42948H4.89701C6.1541 1.42948 7.17282 2.52173 7.17282 3.8089C7.17282 4.44605 6.92308 5.02402 6.51847 5.44423L2.98026 9.03195L6.29681 12.4065C6.72419 12.8472 6.98229 13.4252 6.98229 14.0585C6.98229 15.439 5.75253 16.5578 4.23431 16.5578ZM14.4299 16.5464L8.24696 16.5441C8.24696 16.5441 8.96128 15.0006 8.96128 14.0449C8.96128 12.8791 8.57186 11.8384 7.96154 11.1497L5.84666 8.99554L8.00481 6.76706C8.64777 6.16405 9.07439 5.09305 9.07439 3.87262C9.07439 2.90629 8.80718 2.0507 8.37677 1.42948H9.87449C11.1316 1.42948 12.1511 2.52173 12.1511 3.8089C12.1511 4.44605 11.9013 5.02402 11.4967 5.44423L8.02606 8.99478L15.2346 16.3394C15.0061 16.4827 14.7184 16.5464 14.4299 16.5464ZM15.9398 14.2535L10.774 8.99251L13.2343 6.494C13.7346 5.86824 14.0526 4.92618 14.0526 3.87262C14.0526 2.90022 13.7816 2.02263 13.3474 1.40142L14.4481 1.4348C15.274 1.4348 15.9436 2.1129 15.9436 2.94952L15.9398 14.2535Z" fill="#00529C"/>
</g>
</g>
<defs>
<clipPath id="clip0_2551_2353">
<rect width="18" height="18" fill="white"/>
</clipPath>
</defs>
</svg>
