<svg version="1.1" id="Layer_1" xmlns="http://www.w3.org/2000/svg" xmlns:xlink="http://www.w3.org/1999/xlink" x="0px" y="0px"
	 width="100%" viewBox="0 0 1221 1222" enable-background="new 0 0 1221 1222" xml:space="preserve">
<path fill="#790008" opacity="1.000000" stroke="none" 
	d="
M778.000000,1223.000000 
	C518.666687,1223.000000 259.833344,1223.000000 1.000000,1223.000000 
	C1.000000,815.666687 1.000000,408.333344 1.000000,1.000000 
	C408.000000,1.000000 815.000000,1.000000 1222.000000,1.000000 
	C1222.000000,408.333344 1222.000000,815.666687 1222.000000,1223.000000 
	C1074.166626,1223.000000 926.333313,1223.000000 778.000000,1223.000000 
M1100.435303,610.800659 
	C1085.179932,590.447266 1069.957397,570.069092 1054.662231,549.745605 
	C1022.869202,507.500824 991.034241,465.287659 959.222900,423.056671 
	C912.044067,360.424591 864.857056,297.798676 817.748474,235.113815 
	C815.979370,232.759766 814.256836,231.758530 811.235596,231.759644 
	C597.453552,231.839111 383.671570,231.831375 169.889542,231.847168 
	C168.695740,231.847260 167.501968,232.077209 165.817627,232.250214 
	C261.902161,359.028137 357.589081,485.281433 452.934814,612.089661 
	C448.847443,617.549500 444.788177,623.030640 440.668549,628.465942 
	C395.826263,687.629578 350.971863,746.783936 306.126160,805.945007 
	C274.653473,847.464233 243.174194,888.978516 211.727448,930.517395 
	C196.760864,950.287170 181.863434,970.109314 166.547607,990.244080 
	C166.727722,990.748596 166.907852,991.253113 168.011276,991.827454 
	C210.329208,991.846985 252.647156,991.881714 294.965088,991.883301 
	C466.236969,991.889771 637.508850,991.882080 808.780701,991.913879 
	C812.373291,991.914551 815.301208,991.685913 817.863220,988.266907 
	C858.514465,934.016541 899.314209,879.877502 940.102112,825.729492 
	C983.496338,768.121216 1026.937500,710.548218 1070.303467,652.918762 
	C1080.502197,639.365540 1090.481934,625.647522 1100.690430,611.796265 
	C1100.690430,611.796265 1100.562134,611.587463 1100.435303,610.800659 
z"/>
<path fill="#ED1D24" opacity="1.000000" stroke="none" 
	d="
M1100.562378,612.005310 
	C1090.481934,625.647522 1080.502197,639.365540 1070.303467,652.918762 
	C1026.937500,710.548218 983.496338,768.121216 940.102112,825.729492 
	C899.314209,879.877502 858.514465,934.016541 817.863220,988.266907 
	C815.301208,991.685913 812.373291,991.914551 808.780701,991.913879 
	C637.508850,991.882080 466.236969,991.889771 294.965088,991.883301 
	C252.647156,991.881714 210.329208,991.846985 167.524750,991.485352 
	C167.003723,990.731384 166.969208,990.319519 166.934662,989.907715 
	C181.863434,970.109314 196.760864,950.287170 211.727448,930.517395 
	C243.174194,888.978516 274.653473,847.464233 306.126160,805.945007 
	C350.971863,746.783936 395.826263,687.629578 440.668549,628.465942 
	C444.788177,623.030640 448.847443,617.549500 453.346039,611.777710 
	C454.081421,611.506470 454.406891,611.527588 455.108215,611.701233 
	C457.646027,611.915466 459.809235,611.994690 461.972412,611.994751 
	C674.835754,612.002136 887.699036,612.003540 1100.562378,612.005310 
z"/>
<path fill="#FFFFFF" opacity="1.000000" stroke="none" 
	d="
M454.733612,611.529236 
	C454.406891,611.527588 454.081421,611.506470 453.516632,611.500244 
	C357.589081,485.281433 261.902161,359.028137 165.817627,232.250214 
	C167.501968,232.077209 168.695740,231.847260 169.889542,231.847168 
	C383.671570,231.831375 597.453552,231.839111 811.235596,231.759644 
	C814.256836,231.758530 815.979370,232.759766 817.748474,235.113815 
	C864.857056,297.798676 912.044067,360.424591 959.222900,423.056671 
	C991.034241,465.287659 1022.869202,507.500824 1054.662231,549.745605 
	C1069.957397,570.069092 1085.179932,590.447266 1100.018799,610.988525 
	C1097.605225,611.117859 1095.608154,611.007996 1093.611084,611.007874 
	C882.792297,611.000183 671.973572,610.999084 461.154785,611.022522 
	C459.014374,611.022766 456.873993,611.353027 454.733612,611.529236 
z"/>
<path fill="#E2979A" opacity="1.000000" stroke="none" 
	d="
M455.108215,611.701233 
	C456.873993,611.353027 459.014374,611.022766 461.154785,611.022522 
	C671.973572,610.999084 882.792297,611.000183 1093.611084,611.007874 
	C1095.608154,611.007996 1097.605225,611.117859 1100.082275,611.381958 
	C1100.562134,611.587463 1100.690430,611.796265 1100.626465,611.900757 
	C887.699036,612.003540 674.835754,612.002136 461.972412,611.994751 
	C459.809235,611.994690 457.646027,611.915466 455.108215,611.701233 
z"/>
<path fill="#D0161D" opacity="1.000000" stroke="none" 
	d="
M166.741150,990.075928 
	C166.969208,990.319519 167.003723,990.731384 167.063110,991.450439 
	C166.907852,991.253113 166.727722,990.748596 166.741150,990.075928 
z"/>
</svg>