<svg width="162" height="216" viewBox="0 0 162 216" fill="none" xmlns="http://www.w3.org/2000/svg">
<g clip-path="url(#clip0_495_1359)">
<path d="M135.734 27.7577C143.362 27.7577 149.546 21.5439 149.546 13.8789C149.546 6.21378 143.362 0 135.734 0C128.106 0 121.923 6.21378 121.923 13.8789C121.923 21.5439 128.106 27.7577 135.734 27.7577Z" fill="#FF6884"/>
<path d="M102.961 197.737C101.062 186.943 100.128 175.993 99.9857 165.034C99.843 154.154 100.474 143.273 101.685 132.462C102.913 121.512 104.751 110.64 106.987 99.8548C109.222 89.0785 111.856 78.3934 114.697 67.7648C117.538 57.1362 120.595 46.5468 123.67 35.9747C124.046 34.6798 124.422 33.3849 124.803 32.09C125.036 31.2818 123.786 30.9385 123.553 31.7424C120.461 42.3666 117.365 52.9865 114.459 63.6672C111.54 74.387 108.812 85.1634 106.472 96.0266C104.159 106.755 102.226 117.571 100.864 128.464C99.5014 139.358 98.7014 150.347 98.6711 161.341C98.6409 172.334 99.3717 183.176 101.032 193.961C101.244 195.338 101.473 196.707 101.711 198.08C101.858 198.906 103.108 198.554 102.961 197.732V197.737Z" fill="#F2F2F2"/>
<path d="M122.424 37.1175C121.668 33.2762 122.351 29.3177 122.502 25.4026C122.654 21.4875 122.135 17.2421 119.479 14.3742C117.365 12.0843 114.256 11.0588 111.289 10.1245C110.524 9.88121 109.629 9.6596 108.967 10.1159C108.284 10.5895 108.197 11.5541 108.185 12.3884C108.089 17.6549 108.254 23.0692 110.247 27.9446C112.241 32.82 116.418 37.1001 121.611 37.8084" fill="#F2F2F2"/>
<path d="M111.614 74.0524C110.857 70.2112 111.54 66.2526 111.691 62.3375C111.843 58.4224 111.324 54.1771 108.669 51.3092C106.554 49.0192 103.445 47.9937 100.479 47.0595C99.7133 46.8161 98.8181 46.5945 98.1565 47.0508C97.4733 47.5244 97.3868 48.4891 97.3738 49.3234C97.2787 54.5899 97.443 60.0041 99.4365 64.8795C101.43 69.7549 105.607 74.035 110.801 74.7433" fill="#F2F2F2"/>
<path d="M124.24 32.7113C127.518 30.5908 131.436 29.7782 135.112 28.4877C138.787 27.1971 142.532 25.1462 144.214 21.6134C145.559 18.7977 145.365 15.517 145.144 12.3971C145.088 11.5932 144.967 10.672 144.301 10.2244C143.609 9.7595 142.688 10.0332 141.909 10.3244C136.997 12.1711 132.05 14.309 128.266 17.9591C124.483 21.6091 122.057 27.0885 123.306 32.2029" fill="#F2F2F2"/>
<path d="M116.457 61.8248C119.735 59.7043 123.652 58.8917 127.328 57.6012C131.004 56.3106 134.748 54.2596 136.431 50.7269C137.775 47.9112 137.581 44.6305 137.36 41.5106C137.304 40.7067 137.183 39.7855 136.517 39.3379C135.825 38.873 134.904 39.1467 134.126 39.4378C129.213 41.2846 124.266 43.4225 120.483 47.0725C116.699 50.7226 114.273 56.202 115.523 61.3164" fill="#F2F2F2"/>
<path d="M69.2618 71.9971L66.1873 52.691L86.9437 44.1916L90.0183 73.544L69.2618 71.9971Z" fill="#FFB6B6"/>
<path d="M52.2372 107.298C52.2372 107.298 51.9777 159.042 32.7736 150.343C22.7846 145.819 8.04315 126.743 8.04315 126.743L14.136 120.882L30.7628 134.847L33.8936 107.068L52.2372 107.29V107.298Z" fill="#FFB6B6"/>
<path d="M60.3192 78.5281C60.3192 78.5281 47.5929 74.9085 40.7216 84.8505C33.8504 94.7925 30.3434 131.78 30.3434 131.78L48.5053 140.905L60.3192 78.5281Z" fill="#E6E6E6"/>
<path d="M129.347 106.038L137.421 136.716L157.001 195.03L146.805 200.844L121.175 142.817L114.697 111.856L129.347 106.038Z" fill="#FFB6B6"/>
<path d="M90.4377 62.3201L67.2683 62.7373L65.3569 69.7071L46.7756 80.5052L48.7085 147.705L106.221 152.919L114.507 107.185L116.6 81.2221L92.3836 70.7934L90.4377 62.3201Z" fill="#E6E6E6"/>
<path d="M102.265 85.6935C102.265 85.6935 112.703 75.3778 120.634 82.5649C128.565 89.752 138.074 137.363 138.074 137.363L121.291 145.658L102.265 85.6935Z" fill="#E6E6E6"/>
<path d="M103.194 92.0854C103.194 92.0854 93.6809 91.6508 85.8972 93.8235C78.1136 95.9961 56.0598 91.2163 56.0598 91.2163C61.3743 109.401 57.8414 128.412 48.9248 147.922C37.1541 162.44 50.3734 189.985 30.1142 204.628H114.507L111.41 167.259L106.654 153.354C106.654 153.354 109.248 150.747 108.383 149.878C107.519 149.009 96.7079 106.859 103.194 92.0854Z" fill="#BE8465"/>
<path d="M62.1137 69.0554L56.9246 95.5616L64.2759 97.7343L62.5462 88.1746L65.1407 67.7518L62.1137 69.0554Z" fill="#3F3D56"/>
<path d="M92.816 68.6208L95.7522 104.035L99.7349 103.818L97.1403 70.3589L92.816 68.6208Z" fill="#3F3D56"/>
<path d="M108.868 153.354C108.868 153.354 85.681 159.655 66.2218 157.482L48.2112 145.645L47.4113 147.705C47.4113 147.705 63.0305 167.381 74.6801 166.233C86.3297 165.086 110.113 158.134 110.113 156.396C110.113 154.658 108.868 153.354 108.868 153.354Z" fill="#3F3D56"/>
<path d="M12.7635 126.329C15.3408 124.347 14.952 119.486 11.8951 115.473C8.83812 111.459 4.27064 109.813 1.69332 111.795C-0.883998 113.777 -0.495175 118.638 2.56178 122.651C5.61873 126.664 10.1862 128.311 12.7635 126.329Z" fill="#FFB6B6"/>
<path d="M158.944 211.211C162.344 209.535 163.005 203.882 160.42 198.583C157.835 193.284 152.982 190.348 149.581 192.023C146.18 193.699 145.519 199.353 148.104 204.651C150.69 209.95 155.543 212.887 158.944 211.211Z" fill="#FFB6B6"/>
<path d="M107.212 157.76C109.771 160.997 109.793 165.79 113.192 168.449C114.602 169.553 116.63 170.14 118.364 169.497C120.081 168.862 121.053 167.263 121.248 165.486C121.456 163.596 120.673 161.797 119.549 160.319C118.334 158.725 116.772 157.217 115.082 156.139C113.516 155.14 111.609 154.618 109.802 155.222C107.977 155.831 106.896 157.313 106.853 159.242C106.818 160.589 107.008 161.958 107.108 163.296L107.406 167.381L108.02 175.763C108.081 176.593 109.378 176.601 109.317 175.763L108.357 162.653C108.28 161.614 108.163 160.571 108.15 159.533C108.137 158.69 108.28 157.864 108.885 157.247C109.949 156.165 111.635 156.07 112.993 156.543C114.68 157.13 116.072 158.464 117.304 159.715C118.502 160.936 119.678 162.405 119.938 164.152C120.145 165.542 119.748 167.215 118.489 168.002C117.11 168.862 115.272 168.402 114.048 167.476C112.444 166.264 111.601 164.256 110.904 162.431C110.156 160.467 109.447 158.499 108.133 156.839C107.614 156.183 106.701 157.108 107.216 157.76H107.212Z" fill="#3F3D56"/>
<path d="M106.905 156.4C105.746 157.869 105.049 159.572 104.392 161.31C103.756 162.992 103.112 164.769 101.919 166.146C100.881 167.346 99.3154 168.228 97.6852 167.98C96.1155 167.741 95.1728 166.342 95.0647 164.821C94.9436 163.135 95.7306 161.597 96.7814 160.328C97.9187 158.955 99.3025 157.604 100.838 156.687C102.174 155.887 103.795 155.496 105.266 156.187C105.901 156.487 106.446 156.982 106.701 157.656C107.047 158.577 106.874 159.646 106.805 160.602C106.446 165.508 106.087 170.418 105.728 175.324C105.668 176.162 106.965 176.158 107.026 175.324C107.389 170.379 107.748 165.438 108.111 160.493C108.189 159.407 108.314 158.26 107.921 157.217C107.618 156.417 107.065 155.766 106.351 155.305C104.838 154.323 102.913 154.336 101.292 155.009C99.4365 155.779 97.8754 157.23 96.5133 158.677C95.1814 160.098 94.0269 161.784 93.7977 163.765C93.6031 165.46 94.135 167.333 95.5101 168.415C97.0063 169.592 99.0257 169.501 100.682 168.732C105.153 166.655 105.067 160.806 107.826 157.321C108.34 156.669 107.428 155.744 106.909 156.4H106.905Z" fill="#3F3D56"/>
<path d="M29.4656 99.2247C29.4656 99.2247 19.6625 108.558 3.1524 99.2247L5.73399 130.333C5.73399 130.333 5.9675 130.406 6.38263 130.524C6.68101 131.614 7.50262 132.514 8.61828 132.866C12.2117 134.009 19.1219 135.564 23.7921 132.61C24.7651 131.993 25.3402 130.902 25.3402 129.742V129.65C25.7035 129.385 26.0494 129.099 26.3737 128.773L29.4699 99.2203L29.4656 99.2247Z" fill="#3F3D56"/>
<path d="M16.3068 103.892C23.5718 103.892 29.4612 101.802 29.4612 99.2247C29.4612 96.6473 23.5718 94.5579 16.3068 94.5579C9.04184 94.5579 3.1524 96.6473 3.1524 99.2247C3.1524 101.802 9.04184 103.892 16.3068 103.892Z" fill="#BE8465"/>
<path d="M155.734 180.916C155.734 180.916 145.931 190.25 129.421 180.916L132.003 212.024C132.003 212.024 132.236 212.098 132.651 212.215C132.95 213.306 133.771 214.205 134.887 214.557C138.48 215.7 145.391 217.256 150.061 214.301C151.034 213.684 151.609 212.593 151.609 211.433V211.342C151.972 211.077 152.318 210.79 152.642 210.464L155.739 180.912L155.734 180.916Z" fill="#3F3D56"/>
<path d="M142.575 185.583C149.84 185.583 155.73 183.494 155.73 180.916C155.73 178.339 149.84 176.249 142.575 176.249C135.31 176.249 129.421 178.339 129.421 180.916C129.421 183.494 135.31 185.583 142.575 185.583Z" fill="#BE8465"/>
<path d="M74.5071 58.8961C86.1951 58.8961 95.6701 49.375 95.6701 37.6302C95.6701 25.8854 86.1951 16.3644 74.5071 16.3644C62.8192 16.3644 53.3442 25.8854 53.3442 37.6302C53.3442 49.375 62.8192 58.8961 74.5071 58.8961Z" fill="#FFB6B6"/>
<path d="M68.2023 10.8589C72.4401 9.88988 75.5752 5.37078 79.0822 5.84876C86.6972 6.88294 93.2744 13.1923 94.0744 14.1005C97.4041 17.8852 98.403 21.7482 99.5489 26.2021C100.764 30.9167 99.5143 37.9127 98.3165 42.762C96.5652 49.8579 91.6961 51.2701 92.2928 55.963C92.7123 59.248 95.3501 60.5516 98.3165 63.6628C103.929 69.5551 105.486 76.438 107.077 83.4687C110.866 100.215 105.413 117.101 103.246 117.027C102.788 117.01 102.394 115.915 101.603 113.725C99.1857 107.016 100.375 104.965 98.8657 102.723C96.1717 98.7119 90.4074 102.362 84.0854 98.3209C79.1038 95.1358 77.4087 89.4999 76.4228 86.2192C75.8563 84.3334 73.4606 76.3728 76.9719 68.6165C80.2238 61.4337 84.9545 61.1122 88.4096 52.6562C89.1361 50.8747 91.5404 46.2513 89.015 42.762C87.735 40.9935 87.9902 51.0224 86.0788 49.3799C81.4259 45.3909 83.4929 29.1004 79.16 24.6074C77.0887 22.4565 73.9493 21.6178 71.4974 21.8568C65.6683 22.4217 55.3117 28.1227 54.3993 34.4017C52.9333 44.5045 56.263 48.9149 64.3797 56.5148C65.2575 57.3361 61.9408 56.8972 60.5484 56.5148C53.4652 54.5768 50.6977 45.3692 50.1485 43.3139C48.5312 37.2826 49.7507 32.3072 50.6977 28.4617C51.9042 23.5428 53.2014 18.2502 57.8154 14.7088C60.544 12.6144 63.3375 11.9756 68.2153 10.8589H68.2023Z" fill="#2F2E41"/>
</g>
<defs>
<clipPath id="clip0_495_1359">
<rect width="162" height="216" fill="white"/>
</clipPath>
</defs>
</svg>
