<svg version="1.1" id="Layer_1" xmlns="http://www.w3.org/2000/svg" xmlns:xlink="http://www.w3.org/1999/xlink" x="0px" y="0px"
	 width="100%" viewBox="0 0 506 358" enable-background="new 0 0 506 358" xml:space="preserve">
<path fill="#0D2B5B" opacity="1.000000" stroke="none" 
	d="
M321.000000,359.000000 
	C214.000015,359.000000 107.500023,359.000000 1.000029,359.000000 
	C1.000019,239.666687 1.000019,120.333389 1.000010,1.000061 
	C169.666611,1.000040 338.333221,1.000040 506.999878,1.000020 
	C506.999939,120.333275 506.999939,239.666550 506.999969,358.999908 
	C445.166656,359.000000 383.333344,359.000000 321.000000,359.000000 
M386.908600,146.411331 
	C389.970154,149.880417 393.291809,153.156860 396.035706,156.861267 
	C400.805756,163.301208 406.388794,164.876907 413.350830,160.993134 
	C420.467773,157.022949 427.487946,152.878860 434.537567,148.788651 
	C437.786255,146.903748 441.004089,144.965729 444.616882,142.826202 
	C441.170135,138.595245 438.233551,134.771561 435.062958,131.152908 
	C430.917175,126.421181 426.996399,125.385010 421.232086,127.996231 
	C415.791443,130.460831 410.567200,133.423950 405.337799,136.329773 
	C393.132996,143.111557 387.822418,141.931610 379.950378,130.508469 
	C373.215149,120.734940 364.394806,117.576233 353.000488,121.113190 
	C350.011108,122.041130 347.102875,123.396698 344.359314,124.919685 
	C335.339508,129.926697 326.476532,135.217697 317.430420,140.175400 
	C309.494385,144.524704 301.965942,142.456268 297.178497,134.949066 
	C288.469513,121.292511 277.957031,117.715286 263.567108,125.100662 
	C247.759552,133.213593 232.531937,142.456451 216.769028,151.366745 
	C219.027649,154.140060 221.019638,156.584534 223.010101,159.030273 
	C230.165543,167.822281 237.307922,169.097885 247.088486,163.572723 
	C257.218567,157.850098 267.136780,151.619934 277.699921,146.829407 
	C291.368103,140.630692 302.312805,144.474777 310.480408,156.862320 
	C316.445068,165.908752 321.688049,167.225189 330.969757,161.953659 
	C340.225159,156.697098 349.307953,151.110855 358.750122,146.216446 
	C367.720001,141.566864 377.070099,140.159302 386.908600,146.411331 
M85.326683,221.199585 
	C85.326691,218.034439 85.260651,214.867599 85.341530,211.704529 
	C85.477379,206.391876 85.273636,201.019379 86.025482,195.788864 
	C86.699722,191.098312 90.664658,188.302383 94.868431,188.628632 
	C99.763641,189.008530 101.734108,192.283951 102.096565,196.696335 
	C102.395874,200.339859 102.419289,204.010849 102.449783,207.670624 
	C102.501991,213.938583 102.464188,220.207321 102.464188,226.479523 
	C106.674126,226.479523 110.116486,226.479523 114.016792,226.479523 
	C114.016792,224.626541 114.016121,223.000122 114.016907,221.373688 
	C114.020721,213.544052 113.896233,205.711517 114.073799,197.885818 
	C114.194107,192.583618 117.972183,188.704391 122.637001,188.568130 
	C127.080200,188.438339 130.053024,191.354294 130.796539,196.921997 
	C131.125275,199.383835 131.031952,201.908707 131.041306,204.405289 
	C131.068573,211.685135 131.050995,218.965134 131.050995,226.403290 
	C135.133270,226.403290 138.691208,226.403290 141.949463,226.403290 
	C141.949463,214.807724 142.716797,203.470367 141.728180,192.288239 
	C140.787277,181.645859 130.244659,175.988739 120.613899,180.149658 
	C117.244164,181.605545 114.444382,184.380615 112.468819,185.783295 
	C108.538757,183.412888 105.216812,180.327194 101.352516,179.317856 
	C94.604271,177.555237 88.954880,180.883377 84.243103,186.269669 
	C83.956467,183.825150 83.749741,182.062149 83.532875,180.212585 
	C80.097610,180.212585 77.008415,180.212585 74.162537,180.212585 
	C74.162537,195.804947 74.162537,211.162292 74.162537,226.585892 
	C78.055420,226.585892 81.361687,226.585892 85.046410,226.585892 
	C85.144562,225.020920 85.235588,223.569519 85.326683,221.199585 
M254.194839,225.471573 
	C263.354431,229.864182 271.147644,227.660309 277.868744,220.190598 
	C278.311188,222.596329 278.686798,224.638535 279.003052,226.357971 
	C282.696899,226.357971 285.777588,226.357971 288.551483,226.357971 
	C288.551483,204.452332 288.551483,182.911484 288.551483,161.458405 
	C284.456451,161.458405 280.869934,161.458405 276.793213,161.458405 
	C276.793213,169.108658 276.793213,176.456863 276.793213,184.169205 
	C267.874695,177.362854 258.358185,177.382172 250.843460,183.692062 
	C239.338333,193.352570 240.191910,218.107559 254.194839,225.471573 
M237.377991,194.244797 
	C236.509857,187.918060 233.824936,182.672852 227.643631,180.225403 
	C219.322601,176.930725 212.270294,179.735657 206.244110,186.132828 
	C205.863907,183.811493 205.574173,182.042603 205.290283,180.309357 
	C201.773239,180.309357 198.552917,180.309357 195.641693,180.309357 
	C195.641693,195.877853 195.641693,211.114044 195.641693,226.466888 
	C199.706696,226.466888 203.283768,226.466888 207.330643,226.466888 
	C207.330643,223.748734 207.323486,221.277664 207.332016,218.806656 
	C207.356171,211.815475 207.136108,204.811401 207.495499,197.837311 
	C207.774002,192.433228 211.866119,188.745895 216.842331,188.567444 
	C221.679001,188.393997 225.011902,191.590378 225.786224,197.400314 
	C226.070358,199.532227 225.968109,201.720810 225.973557,203.883728 
	C225.992310,211.334229 225.980774,218.784821 225.980774,226.365479 
	C230.149277,226.365479 233.856323,226.365479 237.550644,226.365479 
	C237.550644,215.704025 237.550644,205.405914 237.377991,194.244797 
M151.936157,185.195328 
	C152.443192,186.865829 152.950211,188.536331 153.455261,190.200363 
	C168.783997,185.086792 174.781631,186.682877 175.240341,195.874222 
	C173.607224,196.003372 171.893265,195.872345 170.339569,196.310120 
	C164.969711,197.823151 159.260559,198.789627 154.420013,201.357849 
	C148.314011,204.597458 146.394852,212.457718 148.895554,218.836365 
	C151.324860,225.032898 157.633423,228.847885 164.614792,227.438431 
	C168.832993,226.586823 172.787033,224.426651 176.802734,222.876450 
	C177.635864,227.422607 178.045868,227.566376 187.024323,226.310608 
	C187.024323,215.479446 187.384323,204.699570 186.902573,193.957443 
	C186.559708,186.311920 181.876633,181.527939 174.396652,179.718536 
	C167.361542,178.016739 160.512436,178.958313 153.945908,181.820160 
	C153.020309,182.223557 152.504303,183.566757 151.936157,185.195328 
M317.267365,197.500626 
	C317.267365,207.083694 317.267365,216.666748 317.267365,226.483704 
	C321.463623,226.483704 325.031708,226.483704 329.093750,226.483704 
	C329.093750,219.476639 329.090332,212.706482 329.094513,205.936310 
	C329.101990,193.879013 331.346893,191.276657 343.298767,189.562469 
	C343.298767,186.472580 343.298767,183.369507 343.298767,180.192413 
	C336.683624,179.259705 331.831238,181.659073 327.934540,188.065613 
	C327.512329,184.739334 327.233368,182.541626 326.948090,180.294037 
	C323.625305,180.294037 320.419373,180.294037 317.267365,180.294037 
	C317.267365,185.906387 317.267365,191.203705 317.267365,197.500626 
M297.060242,185.628723 
	C297.060242,199.202271 297.060242,212.775803 297.060242,226.492889 
	C301.304291,226.492889 304.895172,226.492889 308.709290,226.492889 
	C308.709290,210.923965 308.709290,195.574722 308.709290,180.167267 
	C304.802246,180.167267 301.196442,180.167267 297.281372,180.167267 
	C297.202515,181.768890 297.131378,183.214249 297.060242,185.628723 
M360.938049,220.347412 
	C360.938049,206.946030 360.938049,193.544662 360.938049,180.202820 
	C356.618835,180.202820 353.009460,180.202820 349.356415,180.202820 
	C349.356415,195.759766 349.356415,211.102600 349.356415,226.699844 
	C352.694946,226.699844 355.670898,226.718002 358.646301,226.685196 
	C359.274017,226.678299 359.899689,226.484695 360.938049,226.306427 
	C360.938049,224.547318 360.938049,222.924240 360.938049,220.347412 
z"/>
<path fill="#FAD014" opacity="1.000000" stroke="none" 
	d="
M386.603333,146.199432 
	C377.070099,140.159302 367.720001,141.566864 358.750122,146.216446 
	C349.307953,151.110855 340.225159,156.697098 330.969757,161.953659 
	C321.688049,167.225189 316.445068,165.908752 310.480408,156.862320 
	C302.312805,144.474777 291.368103,140.630692 277.699921,146.829407 
	C267.136780,151.619934 257.218567,157.850098 247.088486,163.572723 
	C237.307922,169.097885 230.165543,167.822281 223.010101,159.030273 
	C221.019638,156.584534 219.027649,154.140060 216.769028,151.366745 
	C232.531937,142.456451 247.759552,133.213593 263.567108,125.100662 
	C277.957031,117.715286 288.469513,121.292511 297.178497,134.949066 
	C301.965942,142.456268 309.494385,144.524704 317.430420,140.175400 
	C326.476532,135.217697 335.339508,129.926697 344.359314,124.919685 
	C347.102875,123.396698 350.011108,122.041130 353.000488,121.113190 
	C364.394806,117.576233 373.215149,120.734940 379.950378,130.508469 
	C387.822418,141.931610 393.132996,143.111557 405.337799,136.329773 
	C410.567200,133.423950 415.791443,130.460831 421.232086,127.996231 
	C426.996399,125.385010 430.917175,126.421181 435.062958,131.152908 
	C438.233551,134.771561 441.170135,138.595245 444.616882,142.826202 
	C441.004089,144.965729 437.786255,146.903748 434.537567,148.788651 
	C427.487946,152.878860 420.467773,157.022949 413.350830,160.993134 
	C406.388794,164.876907 400.805756,163.301208 396.035706,156.861267 
	C393.291809,153.156860 389.970154,149.880417 386.603333,146.199432 
z"/>
<path fill="#F7F8F9" opacity="1.000000" stroke="none" 
	d="
M85.326645,221.658844 
	C85.235588,223.569519 85.144562,225.020920 85.046410,226.585892 
	C81.361687,226.585892 78.055420,226.585892 74.162537,226.585892 
	C74.162537,211.162292 74.162537,195.804947 74.162537,180.212585 
	C77.008415,180.212585 80.097610,180.212585 83.532875,180.212585 
	C83.749741,182.062149 83.956467,183.825150 84.243103,186.269669 
	C88.954880,180.883377 94.604271,177.555237 101.352516,179.317856 
	C105.216812,180.327194 108.538757,183.412888 112.468819,185.783295 
	C114.444382,184.380615 117.244164,181.605545 120.613899,180.149658 
	C130.244659,175.988739 140.787277,181.645859 141.728180,192.288239 
	C142.716797,203.470367 141.949463,214.807724 141.949463,226.403290 
	C138.691208,226.403290 135.133270,226.403290 131.050995,226.403290 
	C131.050995,218.965134 131.068573,211.685135 131.041306,204.405289 
	C131.031952,201.908707 131.125275,199.383835 130.796539,196.921997 
	C130.053024,191.354294 127.080200,188.438339 122.637001,188.568130 
	C117.972183,188.704391 114.194107,192.583618 114.073799,197.885818 
	C113.896233,205.711517 114.020721,213.544052 114.016907,221.373688 
	C114.016121,223.000122 114.016792,224.626541 114.016792,226.479523 
	C110.116486,226.479523 106.674126,226.479523 102.464188,226.479523 
	C102.464188,220.207321 102.501991,213.938583 102.449783,207.670624 
	C102.419289,204.010849 102.395874,200.339859 102.096565,196.696335 
	C101.734108,192.283951 99.763641,189.008530 94.868431,188.628632 
	C90.664658,188.302383 86.699722,191.098312 86.025482,195.788864 
	C85.273636,201.019379 85.477379,206.391876 85.341530,211.704529 
	C85.260651,214.867599 85.326691,218.034439 85.326645,221.658844 
z"/>
<path fill="#F8F9FA" opacity="1.000000" stroke="none" 
	d="
M253.866608,225.289581 
	C240.191910,218.107559 239.338333,193.352570 250.843460,183.692062 
	C258.358185,177.382172 267.874695,177.362854 276.793213,184.169205 
	C276.793213,176.456863 276.793213,169.108658 276.793213,161.458405 
	C280.869934,161.458405 284.456451,161.458405 288.551483,161.458405 
	C288.551483,182.911484 288.551483,204.452332 288.551483,226.357971 
	C285.777588,226.357971 282.696899,226.357971 279.003052,226.357971 
	C278.686798,224.638535 278.311188,222.596329 277.868744,220.190598 
	C271.147644,227.660309 263.354431,229.864182 253.866608,225.289581 
M276.764313,196.360779 
	C274.458588,190.386597 270.969330,187.739456 265.817627,188.056076 
	C260.873901,188.359879 256.750214,191.680984 255.765305,197.547318 
	C255.073044,201.670593 255.126968,206.216309 256.127563,210.256409 
	C257.596008,216.185516 262.682404,218.908035 268.357697,217.963440 
	C273.241364,217.150574 276.759155,212.858276 276.960785,207.201675 
	C277.079346,203.875595 276.921783,200.539673 276.764313,196.360779 
z"/>
<path fill="#F5F7F9" opacity="1.000000" stroke="none" 
	d="
M237.464325,194.676300 
	C237.550644,205.405914 237.550644,215.704025 237.550644,226.365479 
	C233.856323,226.365479 230.149277,226.365479 225.980774,226.365479 
	C225.980774,218.784821 225.992310,211.334229 225.973557,203.883728 
	C225.968109,201.720810 226.070358,199.532227 225.786224,197.400314 
	C225.011902,191.590378 221.679001,188.393997 216.842331,188.567444 
	C211.866119,188.745895 207.774002,192.433228 207.495499,197.837311 
	C207.136108,204.811401 207.356171,211.815475 207.332016,218.806656 
	C207.323486,221.277664 207.330643,223.748734 207.330643,226.466888 
	C203.283768,226.466888 199.706696,226.466888 195.641693,226.466888 
	C195.641693,211.114044 195.641693,195.877853 195.641693,180.309357 
	C198.552917,180.309357 201.773239,180.309357 205.290283,180.309357 
	C205.574173,182.042603 205.863907,183.811493 206.244110,186.132828 
	C212.270294,179.735657 219.322601,176.930725 227.643631,180.225403 
	C233.824936,182.672852 236.509857,187.918060 237.464325,194.676300 
z"/>
<path fill="#F8F9FA" opacity="1.000000" stroke="none" 
	d="
M151.867432,184.835144 
	C152.504303,183.566757 153.020309,182.223557 153.945908,181.820160 
	C160.512436,178.958313 167.361542,178.016739 174.396652,179.718536 
	C181.876633,181.527939 186.559708,186.311920 186.902573,193.957443 
	C187.384323,204.699570 187.024323,215.479446 187.024323,226.310608 
	C178.045868,227.566376 177.635864,227.422607 176.802734,222.876450 
	C172.787033,224.426651 168.832993,226.586823 164.614792,227.438431 
	C157.633423,228.847885 151.324860,225.032898 148.895554,218.836365 
	C146.394852,212.457718 148.314011,204.597458 154.420013,201.357849 
	C159.260559,198.789627 164.969711,197.823151 170.339569,196.310120 
	C171.893265,195.872345 173.607224,196.003372 175.240341,195.874222 
	C174.781631,186.682877 168.783997,185.086792 153.455261,190.200363 
	C152.950211,188.536331 152.443192,186.865829 151.867432,184.835144 
M171.788803,217.583801 
	C176.637772,214.088852 176.273727,209.208969 175.553543,203.666336 
	C172.532608,204.037292 169.703812,204.109100 167.019943,204.769699 
	C160.798813,206.300934 158.321426,210.193680 160.034424,215.226227 
	C161.372589,219.157562 165.225784,220.108795 171.788803,217.583801 
z"/>
<path fill="#F5F6F8" opacity="1.000000" stroke="none" 
	d="
M317.267365,197.000824 
	C317.267365,191.203705 317.267365,185.906387 317.267365,180.294037 
	C320.419373,180.294037 323.625305,180.294037 326.948090,180.294037 
	C327.233368,182.541626 327.512329,184.739334 327.934540,188.065613 
	C331.831238,181.659073 336.683624,179.259705 343.298767,180.192413 
	C343.298767,183.369507 343.298767,186.472580 343.298767,189.562469 
	C331.346893,191.276657 329.101990,193.879013 329.094513,205.936310 
	C329.090332,212.706482 329.093750,219.476639 329.093750,226.483704 
	C325.031708,226.483704 321.463623,226.483704 317.267365,226.483704 
	C317.267365,216.666748 317.267365,207.083694 317.267365,197.000824 
z"/>
<path fill="#FBFBFC" opacity="1.000000" stroke="none" 
	d="
M297.060242,185.144165 
	C297.131378,183.214249 297.202515,181.768890 297.281372,180.167267 
	C301.196442,180.167267 304.802246,180.167267 308.709290,180.167267 
	C308.709290,195.574722 308.709290,210.923965 308.709290,226.492889 
	C304.895172,226.492889 301.304291,226.492889 297.060242,226.492889 
	C297.060242,212.775803 297.060242,199.202271 297.060242,185.144165 
z"/>
<path fill="#FBFBFC" opacity="1.000000" stroke="none" 
	d="
M360.938049,220.824280 
	C360.938049,222.924240 360.938049,224.547318 360.938049,226.306427 
	C359.899689,226.484695 359.274017,226.678299 358.646301,226.685196 
	C355.670898,226.718002 352.694946,226.699844 349.356415,226.699844 
	C349.356415,211.102600 349.356415,195.759766 349.356415,180.202820 
	C353.009460,180.202820 356.618835,180.202820 360.938049,180.202820 
	C360.938049,193.544662 360.938049,206.946030 360.938049,220.824280 
z"/>
<path fill="#112E5D" opacity="1.000000" stroke="none" 
	d="
M276.826355,196.784485 
	C276.921783,200.539673 277.079346,203.875595 276.960785,207.201675 
	C276.759155,212.858276 273.241364,217.150574 268.357697,217.963440 
	C262.682404,218.908035 257.596008,216.185516 256.127563,210.256409 
	C255.126968,206.216309 255.073044,201.670593 255.765305,197.547318 
	C256.750214,191.680984 260.873901,188.359879 265.817627,188.056076 
	C270.969330,187.739456 274.458588,190.386597 276.826355,196.784485 
z"/>
<path fill="#13305F" opacity="1.000000" stroke="none" 
	d="
M171.440277,217.769852 
	C165.225784,220.108795 161.372589,219.157562 160.034424,215.226227 
	C158.321426,210.193680 160.798813,206.300934 167.019943,204.769699 
	C169.703812,204.109100 172.532608,204.037292 175.553543,203.666336 
	C176.273727,209.208969 176.637772,214.088852 171.440277,217.769852 
z"/>
</svg>