<svg width="18" height="14" viewBox="0 0 18 14" fill="none" xmlns="http://www.w3.org/2000/svg">
<g id="bank-mandiri-logo-vector 1" clip-path="url(#clip0_2551_1990)">
<path id="Vector" d="M0 0.624962H18V13.3748H0V0.624962Z" fill="#0D2B5B"/>
<path id="Vector_2" d="M2.5908 7.49386C2.5908 7.30289 2.58746 7.14302 2.57715 6.99998H2.93831L2.95545 7.2454H2.96546C3.04722 7.11586 3.19708 6.96236 3.47649 6.96236C3.69461 6.96236 3.8648 7.08522 3.9364 7.26907H3.94337C4.00132 7.17715 4.06927 7.10889 4.14754 7.06141C4.23962 6.99649 4.34549 6.96236 4.48155 6.96236C4.75762 6.96236 5.03672 7.14969 5.03672 7.6815V8.65896H4.62793V7.74247C4.62793 7.46671 4.53252 7.30289 4.33154 7.30289C4.1885 7.30289 4.08277 7.40543 4.03863 7.52466C4.02635 7.57015 4.01948 7.61694 4.01816 7.66405V8.65911H3.60936V7.69803C3.60936 7.46686 3.51744 7.30304 3.32314 7.30304C3.16675 7.30304 3.06118 7.42591 3.02325 7.54149C3.00642 7.58245 2.99944 7.63038 2.99944 7.67771V8.65911H2.5908V7.49386ZM6.62956 8.26063C6.62956 8.41034 6.63639 8.55672 6.65323 8.65911H6.27508L6.24792 8.47526H6.23761C6.13537 8.6048 5.96154 8.69642 5.74736 8.69642C5.41335 8.69642 5.22602 8.45479 5.22602 8.20254C5.22602 7.78313 5.59704 7.57228 6.21061 7.57562V7.54847C6.21061 7.43926 6.16617 7.25875 5.87311 7.25875C5.70944 7.25875 5.53925 7.31002 5.42685 7.38131L5.3451 7.10874C5.46781 7.03365 5.68244 6.96221 5.94455 6.96221C6.47621 6.96221 6.62972 7.29986 6.62972 7.66056L6.62956 8.26063ZM6.22062 7.8485C5.92408 7.84153 5.64149 7.90629 5.64149 8.15839C5.64149 8.32191 5.74736 8.397 5.88009 8.397C6.04679 8.397 6.16966 8.28763 6.20712 8.16856C6.2163 8.13878 6.2209 8.10779 6.22077 8.07664L6.22062 7.8485ZM6.91898 7.49386C6.91898 7.30289 6.91549 7.14302 6.90563 6.99998H7.27316L7.29349 7.24904H7.3038C7.37525 7.11935 7.5559 6.96236 7.83182 6.96236C8.12154 6.96236 8.42112 7.14969 8.42112 7.67467V8.65896H8.00216V7.7223C8.00216 7.48385 7.91343 7.30274 7.68529 7.30274C7.51859 7.30274 7.4024 7.42212 7.35826 7.54832C7.34461 7.58563 7.34127 7.6369 7.34127 7.68423V8.6588H6.91883L6.91898 7.49386ZM10.238 6.33347V8.19237C10.238 8.36271 10.245 8.54701 10.2516 8.65911H9.87714L9.86 8.397H9.85302C9.75443 8.58084 9.55314 8.69657 9.31151 8.69657C8.91622 8.69657 8.60299 8.35938 8.60299 7.84865C8.59934 7.29318 8.9467 6.96251 9.34564 6.96251C9.57377 6.96251 9.73729 7.05792 9.81222 7.18109H9.81935V6.33363H10.2381L10.238 6.33347ZM9.8192 7.69151C9.8192 7.65768 9.81586 7.61673 9.80888 7.58245C9.77142 7.41923 9.63884 7.28621 9.44787 7.28621C9.17878 7.28621 9.02861 7.52481 9.02861 7.8347C9.02861 8.13761 9.17863 8.35923 9.44453 8.35923C9.61457 8.35923 9.76459 8.24319 9.80539 8.06268C9.81571 8.02537 9.81935 7.98426 9.81935 7.94012L9.8192 7.69151ZM10.5344 8.65911V6.99998H10.9571V8.65911H10.5344ZM11.2532 7.53497C11.2532 7.31017 11.25 7.14984 11.2399 7.00013H11.6044L11.6177 7.3167H11.6315C11.7133 7.08174 11.9073 7.00013 12.0849 7.00013C12.1257 7.00013 12.1494 6.99315 12.1834 7.00013V7.36827C12.1432 7.35937 12.1021 7.3548 12.0609 7.35462C11.8595 7.35462 11.7233 7.48416 11.686 7.67118C11.6777 7.71399 11.6732 7.75744 11.6725 7.80103V8.65926H11.2532V7.53497ZM12.3778 8.65911V6.99998H12.8V8.65911H12.3778Z" fill="white"/>
<path id="Vector_3" d="M15.4296 5.24528C15.2204 5.00668 14.998 5.11468 14.8213 5.20251C14.747 5.23921 14.2105 5.54334 14.2105 5.54334C13.9165 5.66454 13.6876 5.53227 13.5978 5.42093C13.5892 5.41037 13.5815 5.39917 13.5746 5.38741L13.5537 5.35116C13.5183 5.28997 13.479 5.23114 13.436 5.17505C13.4099 5.14105 13.3816 5.10878 13.3513 5.07843C13.1502 4.87532 12.8288 4.73319 12.2915 4.99136C12.0371 5.1388 11.2085 5.61221 11.2085 5.61221C10.8971 5.74038 10.6589 5.5843 10.5816 5.46977C10.5781 5.46549 10.575 5.46086 10.5725 5.45597L10.5623 5.43868L10.5098 5.35283C10.4861 5.31522 10.4607 5.27872 10.4337 5.24346C10.4073 5.20968 10.379 5.17747 10.3489 5.14699C10.1491 4.9451 9.82935 4.80327 9.29679 5.05658C8.97476 5.24043 8.22574 5.66863 8.22574 5.66863L8.22544 5.66894L7.67725 5.98217L7.9609 6.33044C8.08027 6.4442 8.30462 6.63077 8.65167 6.47347C8.65167 6.47347 9.60956 5.91876 9.61335 5.91709C10.4323 5.46765 10.8364 5.89707 11.0151 6.1833C11.0213 6.19225 11.0263 6.20196 11.0319 6.2106L11.0322 6.21106C11.0345 6.21455 11.0359 6.21773 11.0378 6.22107L11.058 6.25414C11.1451 6.3861 11.2823 6.47135 11.446 6.46741C11.5363 6.46559 11.5975 6.43616 11.6867 6.38656L12.6135 5.84899L12.6155 5.84808C13.4448 5.39317 13.8557 5.85066 14.0312 6.13688C14.0448 6.16161 14.0603 6.18527 14.0762 6.20727C14.1631 6.32513 14.283 6.40233 14.4353 6.39854C14.5358 6.39657 14.6485 6.3362 14.6654 6.32513L15.7765 5.6838C15.7768 5.68411 15.6633 5.51255 15.4296 5.24528Z" fill="#FDD213"/>
</g>
<defs>
<clipPath id="clip0_2551_1990">
<rect width="18" height="12.7512" fill="white" transform="translate(0 0.624298)"/>
</clipPath>
</defs>
</svg>
