<svg version="1.1" id="Layer_1" xmlns="http://www.w3.org/2000/svg" xmlns:xlink="http://www.w3.org/1999/xlink" x="0px" y="0px"
	 width="100%" viewBox="0 0 1506 1680" enable-background="new 0 0 1506 1680" xml:space="preserve">
<path fill="#000000" opacity="1.000000" stroke="none" 
	d="
M0.999998,558.000000 
	C1.000000,372.388885 1.000000,186.777756 1.000000,1.000000 
	C278.694672,1.000000 556.389404,1.000000 834.670532,1.423000 
	C833.744385,2.230417 832.235474,2.934178 830.718506,2.952282 
	C797.621765,3.347277 764.524048,3.653086 731.426758,4.003266 
	C701.661560,4.318192 671.896790,4.678634 642.131592,4.995458 
	C609.367554,5.344203 576.603333,5.678678 543.838928,5.996293 
	C507.575867,6.347825 471.312500,6.672493 435.049316,7.015728 
	C434.385193,7.022014 433.721832,7.113990 432.693420,7.113420 
	C431.693481,7.714387 430.866089,8.265138 430.452881,9.037455 
	C426.613953,16.212845 422.724884,23.366209 419.113007,30.656088 
	C417.484314,33.943306 416.449280,37.524662 415.099670,41.244156 
	C415.083832,41.696930 415.113312,41.878109 415.183105,42.295841 
	C415.417633,42.805576 415.677277,42.982857 415.985199,43.454563 
	C418.624054,51.816994 421.200897,59.816532 423.949890,67.756447 
	C435.233643,100.346718 446.589691,132.911957 457.881317,165.499512 
	C469.605072,199.334259 481.256195,233.194199 492.992950,267.024414 
	C503.918365,298.515961 514.942871,329.973083 525.872070,361.463318 
	C537.342346,394.512543 548.725342,427.592072 560.195496,460.641357 
	C568.365417,484.181519 576.637573,507.686188 584.826172,531.219910 
	C596.106018,563.637512 607.354919,596.065796 618.608215,628.492554 
	C629.699036,660.450989 640.799988,692.405945 651.857605,724.375854 
	C663.616272,758.372681 675.315979,792.389893 687.066284,826.389648 
	C696.984253,855.087463 706.885986,883.791138 716.948730,912.438232 
	C718.063843,915.612732 719.541199,919.205750 721.984131,921.249817 
	C726.498901,925.027283 731.853638,927.800842 737.081665,931.280396 
	C738.973328,931.155579 740.801331,931.046143 742.278381,930.269470 
	C745.761108,928.438416 749.271118,926.545532 752.390442,924.177551 
	C754.414307,922.641235 756.561523,920.475342 757.296387,918.160645 
	C762.299316,902.401245 766.927063,886.522888 771.704834,870.691711 
	C777.099121,852.817322 782.578369,834.968384 787.922607,817.079041 
	C796.218140,789.310181 804.393188,761.505249 812.691467,733.737183 
	C818.037415,715.848389 823.568298,698.014771 828.915955,680.126404 
	C836.231873,655.654236 843.414917,631.142273 850.726501,606.668701 
	C856.070679,588.780029 861.571777,570.938232 866.928040,553.053040 
	C874.538513,527.640869 882.061768,502.202606 889.657593,476.786072 
	C894.721863,459.840088 899.883057,442.923096 904.937622,425.974274 
	C912.471741,400.711517 919.900391,375.417267 927.468689,350.164856 
	C932.875549,332.124329 938.502197,314.149689 943.916321,296.111267 
	C952.294983,268.195770 960.554688,240.244614 968.905579,212.320740 
	C974.208008,194.590195 979.622009,176.893021 984.919006,159.160858 
	C994.245239,127.939888 1003.555420,96.714005 1012.793823,65.466927 
	C1015.392273,56.678043 1017.716553,47.808083 1020.387573,38.778099 
	C1017.254150,34.752808 1014.051819,30.777166 1010.512817,27.127960 
	C1003.570679,19.969536 996.379578,13.052375 989.447388,5.884605 
	C988.239441,4.635627 987.796326,2.647016 987.000000,1.000005 
	C1160.268066,1.000000 1333.536133,1.000000 1507.000000,1.000000 
	C1507.000000,195.694656 1507.000000,390.389374 1506.593018,585.383423 
	C1506.070068,571.795593 1505.954224,557.908325 1505.868408,543.754883 
	C1505.595215,543.382080 1505.291870,543.275452 1504.767212,543.111511 
	C1504.546021,543.054260 1504.096313,542.973511 1503.922607,542.661011 
	C1496.500000,538.899536 1489.289551,535.366882 1481.995605,532.016235 
	C1454.333740,519.309082 1426.632690,506.687042 1398.970337,493.981018 
	C1381.265747,485.848877 1363.628296,477.570374 1345.916138,469.454956 
	C1315.266235,455.411713 1284.578857,441.449982 1253.912476,427.442688 
	C1234.260498,418.466461 1214.597534,409.513794 1194.975464,400.472626 
	C1163.451416,385.947540 1131.971680,371.326721 1100.441162,356.815796 
	C1091.705688,352.795563 1082.857178,349.020905 1073.709717,345.181152 
	C1063.588989,350.462830 1053.759277,355.589783 1044.086182,360.996765 
	C1041.201538,362.609131 1038.755493,365.006195 1035.909546,367.377930 
	C1035.054810,370.573273 1034.382935,373.430878 1033.745972,376.296234 
	C1025.758789,412.228546 1017.762634,448.158844 1009.797485,484.096039 
	C1002.115723,518.754822 994.516541,553.432007 986.790771,588.080933 
	C978.562134,624.984863 970.147644,661.847351 961.962097,698.760742 
	C953.809204,735.526672 945.864136,772.338623 937.781433,809.120239 
	C931.502747,837.692566 925.183594,866.256104 918.827087,894.811218 
	C909.863770,935.076721 900.835022,975.327576 891.861572,1015.590759 
	C885.529419,1044.002930 879.267578,1072.430664 872.926514,1100.840820 
	C868.667358,1119.923096 864.225220,1138.965210 860.042297,1158.063965 
	C853.536072,1187.770508 847.295654,1217.535400 840.726868,1247.227905 
	C834.977478,1273.216187 828.790771,1299.107788 823.047302,1325.097290 
	C813.827209,1366.818481 804.861633,1408.595947 795.696899,1450.329468 
	C788.470520,1483.236328 781.141357,1516.120605 773.793091,1549.000488 
	C766.984863,1579.463867 760.138123,1609.918823 753.202026,1640.353271 
	C751.388733,1648.309570 750.003052,1656.061646 754.218201,1663.797852 
	C756.719238,1668.388184 758.640076,1673.294556 761.051636,1678.374878 
	C761.854248,1679.460571 762.427124,1680.230347 763.000000,1681.000000 
	C509.056976,1681.000000 255.113968,1681.000000 1.000000,1681.000000 
	C1.000000,1316.971924 1.000000,952.943909 1.346603,588.373962 
	C2.927960,588.930054 4.312656,589.900757 5.371827,591.147949 
	C10.283434,596.931396 15.034824,602.851562 19.973673,608.611145 
	C28.682089,618.766663 37.545105,628.789795 46.233501,638.962219 
	C57.165630,651.761597 67.960121,664.678467 78.867104,677.499451 
	C85.290596,685.050232 91.845444,692.489258 98.290123,700.022217 
	C107.732063,711.058655 117.127617,722.134644 126.544037,733.192871 
	C134.573914,742.622742 142.621567,752.037476 150.631775,761.484009 
	C159.381699,771.802856 168.057175,782.185059 176.841217,792.474670 
	C183.707199,800.517517 190.756638,808.403992 197.604370,816.462097 
	C207.967484,828.656799 218.176071,840.982910 228.544769,853.172791 
	C237.106750,863.238831 245.838043,873.160706 254.435059,883.197144 
	C263.776001,894.102173 273.029022,905.082520 282.356415,915.999207 
	C290.722809,925.791138 299.180054,935.505676 307.520416,945.319641 
	C316.174744,955.502930 324.693329,965.801636 333.353271,975.980103 
	C339.989410,983.779907 346.800629,991.430603 353.448303,999.220764 
	C362.444092,1009.762573 371.337799,1020.391357 380.313629,1030.950195 
	C386.733429,1038.502441 393.244965,1045.976685 399.663879,1053.529541 
	C408.425537,1063.838867 417.101074,1074.221558 425.882233,1084.514282 
	C434.462860,1094.571899 443.176178,1104.516479 451.748016,1114.581543 
	C464.296478,1129.315918 476.735291,1144.143799 489.288727,1158.873901 
	C497.975220,1169.066406 506.827515,1179.117676 515.512878,1189.311035 
	C526.214294,1201.870605 536.816284,1214.514893 547.466736,1227.117920 
	C556.104309,1237.339111 564.730652,1247.569946 573.397644,1257.765991 
	C581.751587,1267.594116 590.120178,1277.410156 598.539490,1287.182373 
	C607.491699,1297.572754 616.595642,1307.833374 625.480652,1318.280640 
	C637.679932,1332.624878 649.698853,1347.122559 661.886292,1361.476929 
	C664.096252,1364.079712 666.392151,1367.719482 669.260010,1368.437500 
	C676.688599,1370.297729 684.458374,1370.795166 692.437744,1371.886108 
	C693.890564,1371.301880 694.997681,1370.668213 696.408203,1369.870117 
	C699.983765,1363.824707 703.435120,1358.032593 706.418396,1352.008545 
	C707.307617,1350.213013 707.433105,1347.638306 706.961060,1345.644897 
	C705.528809,1339.595703 703.708618,1333.633301 701.904114,1327.678101 
	C694.685303,1303.854492 687.310608,1280.077515 680.191833,1256.224243 
	C672.001160,1228.779053 664.101013,1201.247314 655.921265,1173.798950 
	C649.796326,1153.245728 643.352417,1132.787842 637.187378,1112.246338 
	C628.764038,1084.180420 620.494568,1056.068481 612.113159,1027.989868 
	C606.823059,1010.267578 601.406128,992.583191 596.123169,974.858765 
	C588.876587,950.546143 581.746826,926.198547 574.483765,901.890930 
	C569.093750,883.851990 563.501648,865.873413 558.123657,847.830994 
	C549.191833,817.866211 540.409729,787.856689 531.468323,757.894714 
	C525.101440,736.559631 518.516357,715.289734 512.136475,693.958496 
	C502.849701,662.907959 493.681671,631.821838 484.420044,600.763733 
	C479.367188,583.819458 474.178101,566.915771 469.135620,549.968445 
	C461.900604,525.652039 454.749481,501.310699 447.550629,476.983521 
	C443.045685,461.760010 438.607300,446.515930 433.973083,431.331726 
	C430.455383,419.805634 426.675873,408.359406 422.867462,396.577942 
	C407.545807,386.081482 392.386444,375.859283 377.157379,365.742035 
	C376.076477,365.023926 374.482910,365.077454 372.762085,364.873169 
	C371.938477,365.144684 371.459503,365.273438 371.025665,365.491913 
	C328.729492,386.791321 286.439026,408.102173 244.142441,429.400848 
	C229.967361,436.538788 215.773743,443.639923 201.594589,450.769836 
	C149.092133,477.170441 96.581734,503.555328 44.098324,529.993774 
	C30.403502,536.892517 16.795631,543.963928 3.083870,551.384033 
	C2.346611,553.874695 1.673303,555.937317 0.999998,558.000000 
z"/>
<path fill="#000000" opacity="1.000000" stroke="none" 
	d="
M1507.000000,602.000000 
	C1507.000000,961.585022 1507.000000,1321.170044 1507.000000,1681.000000 
	C1261.970703,1681.000000 1016.941284,1681.000000 771.345032,1680.620850 
	C776.672058,1678.496460 782.653442,1676.996094 788.431885,1674.928467 
	C793.013306,1673.289062 798.287415,1673.430298 801.491394,1668.220459 
	C807.940186,1657.734375 815.127075,1647.704956 821.880432,1637.402466 
	C833.584290,1619.547607 845.122070,1601.583740 856.852112,1583.746338 
	C877.519226,1552.318604 898.272339,1520.947510 919.001587,1489.560669 
	C933.939575,1466.942627 948.912354,1444.347534 963.842896,1421.724365 
	C983.205200,1392.385986 1002.522583,1363.017700 1021.892517,1333.684082 
	C1047.871216,1294.342041 1073.870361,1255.013672 1099.881836,1215.693237 
	C1124.080933,1179.112305 1148.345703,1142.574341 1172.511475,1105.971313 
	C1194.957520,1071.973145 1217.293457,1037.902344 1239.710693,1003.885010 
	C1259.776733,973.435242 1279.882446,943.011536 1299.979858,912.582336 
	C1315.550415,889.007324 1331.128174,865.437134 1346.715088,841.872986 
	C1367.016113,811.181763 1387.355469,780.515808 1407.627563,749.805542 
	C1420.294800,730.615784 1432.797485,711.317139 1445.500854,692.151428 
	C1464.922607,662.849609 1484.443726,633.613586 1503.982422,604.389587 
	C1504.661255,603.374390 1505.979614,602.786865 1507.000000,602.000000 
z"/>
<path fill="#6E9123" opacity="1.000000" stroke="none" 
	d="
M1507.000000,601.666687 
	C1505.979614,602.786865 1504.661255,603.374390 1503.982422,604.389587 
	C1484.443726,633.613586 1464.922607,662.849609 1445.500854,692.151428 
	C1432.797485,711.317139 1420.294800,730.615784 1407.627563,749.805542 
	C1387.355469,780.515808 1367.016113,811.181763 1346.715088,841.872986 
	C1331.128174,865.437134 1315.550415,889.007324 1299.979858,912.582336 
	C1279.882446,943.011536 1259.776733,973.435242 1239.710693,1003.885010 
	C1217.293457,1037.902344 1194.957520,1071.973145 1172.511475,1105.971313 
	C1148.345703,1142.574341 1124.080933,1179.112305 1099.881836,1215.693237 
	C1073.870361,1255.013672 1047.871216,1294.342041 1021.892517,1333.684082 
	C1002.522583,1363.017700 983.205200,1392.385986 963.842896,1421.724365 
	C948.912354,1444.347534 933.939575,1466.942627 919.001587,1489.560669 
	C898.272339,1520.947510 877.519226,1552.318604 856.852112,1583.746338 
	C845.122070,1601.583740 833.584290,1619.547607 821.880432,1637.402466 
	C815.127075,1647.704956 807.940186,1657.734375 801.491394,1668.220459 
	C798.287415,1673.430298 793.013306,1673.289062 788.431885,1674.928467 
	C782.653442,1676.996094 776.672058,1678.496460 770.889099,1680.620850 
	C769.933289,1681.000000 768.866638,1681.000000 767.354736,1680.597778 
	C767.387268,1678.270630 767.612000,1676.237793 768.380188,1674.436890 
	C781.388123,1643.943237 794.455566,1613.475098 807.526001,1583.008179 
	C842.271973,1502.015625 877.043884,1421.034302 911.772034,1340.034180 
	C957.201233,1234.075195 1002.583252,1128.095825 1048.013428,1022.137268 
	C1092.064087,919.395996 1136.138062,816.664795 1180.227905,713.940369 
	C1193.106445,683.934998 1206.073608,653.967712 1219.447144,623.983826 
	C1228.671021,623.295105 1237.446777,622.593079 1246.224854,621.919006 
	C1259.645264,620.888367 1273.076172,619.982239 1286.486328,618.833923 
	C1308.511475,616.947815 1330.519409,614.863403 1352.542480,612.953491 
	C1365.632812,611.818237 1378.743286,610.915649 1391.835693,609.803467 
	C1410.376221,608.228577 1428.906372,606.532715 1447.445068,604.936218 
	C1457.209717,604.095337 1466.984619,603.373535 1476.752197,602.565247 
	C1486.836548,601.730835 1496.917480,600.856750 1507.000000,600.000000 
	C1507.000000,600.444458 1507.000000,600.888916 1507.000000,601.666687 
z"/>
<path fill="#80B13A" opacity="1.000000" stroke="none" 
	d="
M1219.000000,623.982910 
	C1206.073608,653.967712 1193.106445,683.934998 1180.227905,713.940369 
	C1136.138062,816.664795 1092.064087,919.395996 1048.013428,1022.137268 
	C1002.583252,1128.095825 957.201233,1234.075195 911.772034,1340.034180 
	C877.043884,1421.034302 842.271973,1502.015625 807.526001,1583.008179 
	C794.455566,1613.475098 781.388123,1643.943237 768.380188,1674.436890 
	C767.612000,1676.237793 767.387268,1678.270630 766.954834,1680.597778 
	C765.933289,1681.000000 764.866638,1681.000000 763.399963,1681.000000 
	C762.427124,1680.230347 761.854248,1679.460571 761.210938,1678.038574 
	C772.763367,1643.676147 784.443787,1609.985840 795.997803,1576.252441 
	C824.237244,1493.803711 852.395447,1411.327148 880.627747,1328.875977 
	C932.395996,1177.689087 984.193115,1026.512085 1035.979980,875.331604 
	C1065.248535,789.888672 1094.535889,704.452209 1123.774292,618.998840 
	C1128.411255,605.446411 1132.832642,591.820068 1137.708862,578.175293 
	C1138.713013,577.972900 1139.418335,577.939331 1140.002808,577.656433 
	C1159.646729,568.147644 1179.271851,558.600098 1198.919800,549.099670 
	C1202.410522,547.411804 1201.149414,545.330750 1199.695923,543.047485 
	C1173.927856,502.567352 1148.152222,462.092010 1122.428345,421.583801 
	C1106.262939,396.127563 1090.180298,370.618774 1074.060547,345.133545 
	C1082.857178,349.020905 1091.705688,352.795563 1100.441162,356.815796 
	C1131.971680,371.326721 1163.451416,385.947540 1194.975464,400.472626 
	C1214.597534,409.513794 1234.260498,418.466461 1253.912476,427.442688 
	C1284.578857,441.449982 1315.266235,455.411713 1345.916138,469.454956 
	C1363.628296,477.570374 1381.265747,485.848877 1398.970337,493.981018 
	C1426.632690,506.687042 1454.333740,519.309082 1481.995605,532.016235 
	C1489.289551,535.366882 1496.500000,538.899536 1503.493164,542.710693 
	C1500.089844,543.364258 1496.945435,543.865479 1493.794189,543.913940 
	C1468.487305,544.302734 1443.179199,544.605347 1417.871460,544.935913 
	C1392.397095,545.268616 1366.923096,545.652954 1341.448120,545.925171 
	C1303.313354,546.332703 1265.177856,546.667786 1227.042603,547.018555 
	C1220.712646,547.076782 1214.381592,547.098999 1208.051636,547.060913 
	C1204.084839,547.036987 1202.727417,548.671936 1203.604492,552.677612 
	C1208.806030,576.430725 1213.881958,600.211426 1219.000000,623.982910 
z"/>
<path fill="#005874" opacity="1.000000" stroke="none" 
	d="
M692.091980,1371.836670 
	C684.458374,1370.795166 676.688599,1370.297729 669.260010,1368.437500 
	C666.392151,1367.719482 664.096252,1364.079712 661.886292,1361.476929 
	C649.698853,1347.122559 637.679932,1332.624878 625.480652,1318.280640 
	C616.595642,1307.833374 607.491699,1297.572754 598.539490,1287.182373 
	C590.120178,1277.410156 581.751587,1267.594116 573.397644,1257.765991 
	C564.730652,1247.569946 556.104309,1237.339111 547.466736,1227.117920 
	C536.816284,1214.514893 526.214294,1201.870605 515.512878,1189.311035 
	C506.827515,1179.117676 497.975220,1169.066406 489.288727,1158.873901 
	C476.735291,1144.143799 464.296478,1129.315918 451.748016,1114.581543 
	C443.176178,1104.516479 434.462860,1094.571899 425.882233,1084.514282 
	C417.101074,1074.221558 408.425537,1063.838867 399.663879,1053.529541 
	C393.244965,1045.976685 386.733429,1038.502441 380.313629,1030.950195 
	C371.337799,1020.391357 362.444092,1009.762573 353.448303,999.220764 
	C346.800629,991.430603 339.989410,983.779907 333.353271,975.980103 
	C324.693329,965.801636 316.174744,955.502930 307.520416,945.319641 
	C299.180054,935.505676 290.722809,925.791138 282.356415,915.999207 
	C273.029022,905.082520 263.776001,894.102173 254.435059,883.197144 
	C245.838043,873.160706 237.106750,863.238831 228.544769,853.172791 
	C218.176071,840.982910 207.967484,828.656799 197.604370,816.462097 
	C190.756638,808.403992 183.707199,800.517517 176.841217,792.474670 
	C168.057175,782.185059 159.381699,771.802856 150.631775,761.484009 
	C142.621567,752.037476 134.573914,742.622742 126.544037,733.192871 
	C117.127617,722.134644 107.732063,711.058655 98.290123,700.022217 
	C91.845444,692.489258 85.290596,685.050232 78.867104,677.499451 
	C67.960121,664.678467 57.165630,651.761597 46.233501,638.962219 
	C37.545105,628.789795 28.682089,618.766663 19.973673,608.611145 
	C15.034824,602.851562 10.283434,596.931396 5.371827,591.147949 
	C4.312656,589.900757 2.927960,588.930054 1.346603,587.916016 
	C1.000000,587.555542 1.000000,587.111084 1.407129,586.347046 
	C68.166794,598.714294 134.519333,611.401123 201.050858,624.378418 
	C251.380844,700.942139 301.528687,777.217529 351.683502,853.488342 
	C456.935516,1013.545898 562.198547,1173.596313 667.431763,1333.666260 
	C675.752747,1346.323364 683.876526,1359.110229 692.091980,1371.836670 
z"/>
<path fill="#D81936" opacity="1.000000" stroke="none" 
	d="
M433.058136,7.165983 
	C433.721832,7.113990 434.385193,7.022014 435.049316,7.015728 
	C471.312500,6.672493 507.575867,6.347825 543.838928,5.996293 
	C576.603333,5.678678 609.367554,5.344203 642.131592,4.995458 
	C671.896790,4.678634 701.661560,4.318192 731.426758,4.003266 
	C764.524048,3.653086 797.621765,3.347277 830.718506,2.952282 
	C832.235474,2.934178 833.744385,2.230417 835.128540,1.423000 
	C884.354248,1.000000 933.708435,1.000000 983.218323,1.184389 
	C981.800232,1.905924 980.237976,2.480014 978.651062,2.974850 
	C927.165649,19.029671 875.676208,35.071594 824.190918,51.126781 
	C778.107483,65.497452 732.026184,79.874779 685.950012,94.268753 
	C680.657104,95.922241 675.403442,97.701447 668.947998,99.808708 
	C691.029724,116.068336 712.034607,131.535095 733.028687,147.470215 
	C733.319397,178.089859 733.659790,208.240799 733.913513,238.392471 
	C734.283752,282.376648 734.591858,326.361328 734.926086,370.345795 
	C735.257874,413.996979 735.612610,457.648010 735.914612,501.299377 
	C736.288086,555.283508 736.582336,609.268127 736.978943,663.252014 
	C737.223694,696.570618 737.651733,729.887817 737.897644,763.206421 
	C738.294800,817.023682 738.620911,870.841431 738.917480,924.659363 
	C738.929138,926.776978 738.327820,928.898071 737.951843,930.613525 
	C737.294067,926.781982 736.582336,923.369995 736.117371,919.924561 
	C732.872864,895.882141 729.803284,871.815552 726.441223,847.789734 
	C721.094238,809.579651 715.472534,771.407959 710.140869,733.195740 
	C706.396240,706.358276 703.012756,679.470581 699.328979,652.624329 
	C697.067993,636.146851 694.445251,619.719116 692.163635,603.244263 
	C689.133850,581.367310 686.375549,559.452698 683.321533,537.579163 
	C680.017456,513.914307 676.401123,490.292938 673.113892,466.625824 
	C668.996765,436.983765 665.133850,407.306427 661.047363,377.660034 
	C658.847717,361.702362 656.296204,345.793182 654.104919,329.834442 
	C650.149231,301.025848 646.391968,272.190063 642.459656,243.378204 
	C640.030762,225.581390 637.429077,207.808151 634.909424,190.023697 
	C632.835205,175.383667 630.767517,160.742706 629.009094,145.921463 
	C629.720032,145.440155 630.191345,145.201294 630.506897,144.830048 
	C642.254272,131.009064 653.999878,117.186562 665.714111,103.337448 
	C669.099060,99.335609 665.743164,98.306717 662.857117,97.181595 
	C618.945618,80.062798 575.010193,63.005325 531.122253,45.826492 
	C498.402985,33.019371 465.743988,20.058428 433.058136,7.165983 
z"/>
<path fill="#A5C550" opacity="1.000000" stroke="none" 
	d="
M1219.447021,623.983765 
	C1213.881958,600.211426 1208.806030,576.430725 1203.604492,552.677612 
	C1202.727417,548.671936 1204.084839,547.036987 1208.051636,547.060913 
	C1214.381592,547.098999 1220.712646,547.076782 1227.042603,547.018555 
	C1265.177856,546.667786 1303.313354,546.332703 1341.448120,545.925171 
	C1366.923096,545.652954 1392.397095,545.268616 1417.871460,544.935913 
	C1443.179199,544.605347 1468.487305,544.302734 1493.794189,543.913940 
	C1496.945435,543.865479 1500.089844,543.364258 1503.666870,543.023193 
	C1504.096313,542.973511 1504.546021,543.054260 1504.895874,543.266235 
	C1505.426636,543.677185 1505.624146,543.858215 1505.838257,544.021118 
	C1505.954224,557.908325 1506.070068,571.795593 1506.593018,585.841431 
	C1507.000000,590.356873 1507.000000,594.713806 1507.000000,599.535339 
	C1496.917480,600.856750 1486.836548,601.730835 1476.752197,602.565247 
	C1466.984619,603.373535 1457.209717,604.095337 1447.445068,604.936218 
	C1428.906372,606.532715 1410.376221,608.228577 1391.835693,609.803467 
	C1378.743286,610.915649 1365.632812,611.818237 1352.542480,612.953491 
	C1330.519409,614.863403 1308.511475,616.947815 1286.486328,618.833923 
	C1273.076172,619.982239 1259.645264,620.888367 1246.224854,621.919006 
	C1237.446777,622.593079 1228.671021,623.295105 1219.447021,623.983765 
z"/>
<path fill="#DC505E" opacity="1.000000" stroke="none" 
	d="
M733.039551,147.001862 
	C712.034607,131.535095 691.029724,116.068336 668.947998,99.808708 
	C675.403442,97.701447 680.657104,95.922241 685.950012,94.268753 
	C732.026184,79.874779 778.107483,65.497452 824.190918,51.126781 
	C875.676208,35.071594 927.165649,19.029671 978.651062,2.974850 
	C980.237976,2.480014 981.800232,1.905924 983.687012,1.184389 
	C984.750000,1.000000 985.500000,1.000000 986.625000,1.000005 
	C987.796326,2.647016 988.239441,4.635627 989.447388,5.884605 
	C996.379578,13.052375 1003.570679,19.969536 1010.512817,27.127960 
	C1014.051819,30.777166 1017.254150,34.752808 1019.996094,38.820023 
	C1003.320496,45.016254 987.226929,50.892345 971.200439,56.946178 
	C928.854553,72.941902 886.545776,89.035828 844.206970,105.050423 
	C807.161926,119.062660 770.096191,133.020172 733.039551,147.001862 
z"/>
<path fill="#007592" opacity="1.000000" stroke="none" 
	d="
M200.871857,624.088013 
	C134.519333,611.401123 68.166794,598.714294 1.407129,586.013672 
	C1.000000,576.979126 1.000000,567.958191 0.999998,558.468628 
	C1.673303,555.937317 2.346611,553.874695 3.530173,551.394775 
	C18.806170,551.978882 33.569744,553.013550 48.338161,553.973694 
	C70.578346,555.419739 92.826660,556.743347 115.062805,558.247803 
	C142.109619,560.078003 169.143524,562.099487 196.191467,563.911865 
	C204.056961,564.438965 204.341431,564.254150 203.941605,572.286621 
	C203.081680,589.561890 201.913727,606.821838 200.871857,624.088013 
z"/>
<path fill="#B22B37" opacity="1.000000" stroke="none" 
	d="
M733.028687,147.470215 
	C770.096191,133.020172 807.161926,119.062660 844.206970,105.050423 
	C886.545776,89.035828 928.854553,72.941902 971.200439,56.946178 
	C987.226929,50.892345 1003.320496,45.016254 1019.775024,39.017216 
	C1017.716553,47.808083 1015.392273,56.678043 1012.793823,65.466927 
	C1003.555420,96.714005 994.245239,127.939888 984.919006,159.160858 
	C979.622009,176.893021 974.208008,194.590195 968.905579,212.320740 
	C960.554688,240.244614 952.294983,268.195770 943.916321,296.111267 
	C938.502197,314.149689 932.875549,332.124329 927.468689,350.164856 
	C919.900391,375.417267 912.471741,400.711517 904.937622,425.974274 
	C899.883057,442.923096 894.721863,459.840088 889.657593,476.786072 
	C882.061768,502.202606 874.538513,527.640869 866.928040,553.053040 
	C861.571777,570.938232 856.070679,588.780029 850.726501,606.668701 
	C843.414917,631.142273 836.231873,655.654236 828.915955,680.126404 
	C823.568298,698.014771 818.037415,715.848389 812.691467,733.737183 
	C804.393188,761.505249 796.218140,789.310181 787.922607,817.079041 
	C782.578369,834.968384 777.099121,852.817322 771.704834,870.691711 
	C766.927063,886.522888 762.299316,902.401245 757.296387,918.160645 
	C756.561523,920.475342 754.414307,922.641235 752.390442,924.177551 
	C749.271118,926.545532 745.761108,928.438416 742.278381,930.269470 
	C740.801331,931.046143 738.973328,931.155579 737.369873,931.301270 
	C737.627258,931.028687 737.819641,931.023071 738.012085,931.017517 
	C738.327820,928.898071 738.929138,926.776978 738.917480,924.659363 
	C738.620911,870.841431 738.294800,817.023682 737.897644,763.206421 
	C737.651733,729.887817 737.223694,696.570618 736.978943,663.252014 
	C736.582336,609.268127 736.288086,555.283508 735.914612,501.299377 
	C735.612610,457.648010 735.257874,413.996979 734.926086,370.345795 
	C734.591858,326.361328 734.283752,282.376648 733.913513,238.392471 
	C733.659790,208.240799 733.319397,178.089859 733.028687,147.470215 
z"/>
<path fill="#007592" opacity="1.000000" stroke="none" 
	d="
M423.012817,396.877625 
	C426.675873,408.359406 430.455383,419.805634 433.973083,431.331726 
	C438.607300,446.515930 443.045685,461.760010 447.550629,476.983521 
	C454.749481,501.310699 461.900604,525.652039 469.135620,549.968445 
	C474.178101,566.915771 479.367188,583.819458 484.420044,600.763733 
	C493.681671,631.821838 502.849701,662.907959 512.136475,693.958496 
	C518.516357,715.289734 525.101440,736.559631 531.468323,757.894714 
	C540.409729,787.856689 549.191833,817.866211 558.123657,847.830994 
	C563.501648,865.873413 569.093750,883.851990 574.483765,901.890930 
	C581.746826,926.198547 588.876587,950.546143 596.123169,974.858765 
	C601.406128,992.583191 606.823059,1010.267578 612.113159,1027.989868 
	C620.494568,1056.068481 628.764038,1084.180420 637.187378,1112.246338 
	C643.352417,1132.787842 649.796326,1153.245728 655.921265,1173.798950 
	C664.101013,1201.247314 672.001160,1228.779053 680.191833,1256.224243 
	C687.310608,1280.077515 694.685303,1303.854492 701.904114,1327.678101 
	C703.708618,1333.633301 705.528809,1339.595703 706.961060,1345.644897 
	C707.433105,1347.638306 707.307617,1350.213013 706.418396,1352.008545 
	C703.435120,1358.032593 699.983765,1363.824707 696.161865,1369.630005 
	C693.752869,1366.401733 691.798523,1363.300781 690.049072,1360.088379 
	C674.992493,1332.440063 659.986755,1304.764282 644.939331,1277.111084 
	C612.934082,1218.293823 580.886597,1159.499634 548.906738,1100.668579 
	C522.495361,1052.081543 496.180145,1003.442200 469.779449,954.849365 
	C433.041138,887.229126 396.272369,819.625427 359.497894,752.024841 
	C337.767639,712.079346 315.971283,672.169739 294.268921,632.209167 
	C287.436859,619.629272 280.813599,606.935974 274.320892,594.031494 
	C305.651703,552.407471 336.727051,511.024506 367.872101,469.694061 
	C386.195129,445.378815 404.628876,421.146973 423.012817,396.877625 
z"/>
<path fill="#3F7937" opacity="1.000000" stroke="none" 
	d="
M1137.353516,578.227844 
	C1132.832642,591.820068 1128.411255,605.446411 1123.774292,618.998840 
	C1094.535889,704.452209 1065.248535,789.888672 1035.979980,875.331604 
	C984.193115,1026.512085 932.395996,1177.689087 880.627747,1328.875977 
	C852.395447,1411.327148 824.237244,1493.803711 795.997803,1576.252441 
	C784.443787,1609.985840 772.763367,1643.676147 760.981140,1677.722412 
	C758.640076,1673.294556 756.719238,1668.388184 754.218201,1663.797852 
	C750.003052,1656.061646 751.388733,1648.309570 753.202026,1640.353271 
	C760.138123,1609.918823 766.984863,1579.463867 773.793091,1549.000488 
	C781.141357,1516.120605 788.470520,1483.236328 795.696899,1450.329468 
	C804.861633,1408.595947 813.827209,1366.818481 823.047302,1325.097290 
	C828.790771,1299.107788 834.977478,1273.216187 840.726868,1247.227905 
	C847.295654,1217.535400 853.536072,1187.770508 860.042297,1158.063965 
	C864.225220,1138.965210 868.667358,1119.923096 872.926514,1100.840820 
	C879.267578,1072.430664 885.529419,1044.002930 891.861572,1015.590759 
	C900.835022,975.327576 909.863770,935.076721 918.827087,894.811218 
	C925.183594,866.256104 931.502747,837.692566 937.781433,809.120239 
	C945.864136,772.338623 953.809204,735.526672 961.962097,698.760742 
	C970.147644,661.847351 978.562134,624.984863 986.790771,588.080933 
	C994.516541,553.432007 1002.115723,518.754822 1009.797485,484.096039 
	C1017.762634,448.158844 1025.758789,412.228546 1033.745972,376.296234 
	C1034.382935,373.430878 1035.054810,370.573273 1036.112671,367.644592 
	C1037.379761,369.188202 1038.317017,370.764954 1039.098755,372.415436 
	C1056.194092,408.510956 1073.283569,444.609283 1090.349121,480.718872 
	C1100.872559,502.985626 1111.267822,525.313354 1121.893188,547.531250 
	C1126.834961,557.864624 1132.187378,568.001709 1137.353516,578.227844 
z"/>
<path fill="#762624" opacity="1.000000" stroke="none" 
	d="
M737.951843,930.613525 
	C737.819641,931.023071 737.627258,931.028687 737.146667,931.013428 
	C731.853638,927.800842 726.498901,925.027283 721.984131,921.249817 
	C719.541199,919.205750 718.063843,915.612732 716.948730,912.438232 
	C706.885986,883.791138 696.984253,855.087463 687.066284,826.389648 
	C675.315979,792.389893 663.616272,758.372681 651.857605,724.375854 
	C640.799988,692.405945 629.699036,660.450989 618.608215,628.492554 
	C607.354919,596.065796 596.106018,563.637512 584.826172,531.219910 
	C576.637573,507.686188 568.365417,484.181519 560.195496,460.641357 
	C548.725342,427.592072 537.342346,394.512543 525.872070,361.463318 
	C514.942871,329.973083 503.918365,298.515961 492.992950,267.024414 
	C481.256195,233.194199 469.605072,199.334259 457.881317,165.499512 
	C446.589691,132.911957 435.233643,100.346718 423.949890,67.756447 
	C421.200897,59.816532 418.624054,51.816994 415.823883,43.303299 
	C415.512146,42.518852 415.333160,42.284710 415.142761,42.059284 
	C415.113312,41.878109 415.083832,41.696930 415.446838,41.328918 
	C428.099762,47.140663 440.391724,53.075897 452.615173,59.149017 
	C500.064117,82.723633 547.475403,106.374062 594.938293,129.920654 
	C606.116028,135.465958 617.440125,140.716187 628.696899,146.102158 
	C630.767517,160.742706 632.835205,175.383667 634.909424,190.023697 
	C637.429077,207.808151 640.030762,225.581390 642.459656,243.378204 
	C646.391968,272.190063 650.149231,301.025848 654.104919,329.834442 
	C656.296204,345.793182 658.847717,361.702362 661.047363,377.660034 
	C665.133850,407.306427 668.996765,436.983765 673.113892,466.625824 
	C676.401123,490.292938 680.017456,513.914307 683.321533,537.579163 
	C686.375549,559.452698 689.133850,581.367310 692.163635,603.244263 
	C694.445251,619.719116 697.067993,636.146851 699.328979,652.624329 
	C703.012756,679.470581 706.396240,706.358276 710.140869,733.195740 
	C715.472534,771.407959 721.094238,809.579651 726.441223,847.789734 
	C729.803284,871.815552 732.872864,895.882141 736.117371,919.924561 
	C736.582336,923.369995 737.294067,926.781982 737.951843,930.613525 
z"/>
<path fill="#0097B9" opacity="1.000000" stroke="none" 
	d="
M274.094757,594.294617 
	C280.813599,606.935974 287.436859,619.629272 294.268921,632.209167 
	C315.971283,672.169739 337.767639,712.079346 359.497894,752.024841 
	C396.272369,819.625427 433.041138,887.229126 469.779449,954.849365 
	C496.180145,1003.442200 522.495361,1052.081543 548.906738,1100.668579 
	C580.886597,1159.499634 612.934082,1218.293823 644.939331,1277.111084 
	C659.986755,1304.764282 674.992493,1332.440063 690.049072,1360.088379 
	C691.798523,1363.300781 693.752869,1366.401733 695.858521,1369.794434 
	C694.997681,1370.668213 693.890564,1371.301880 692.437744,1371.886108 
	C683.876526,1359.110229 675.752747,1346.323364 667.431763,1333.666260 
	C562.198547,1173.596313 456.935516,1013.545898 351.683502,853.488342 
	C301.528687,777.217529 251.380844,700.942139 201.050842,624.378418 
	C201.913727,606.821838 203.081680,589.561890 203.941605,572.286621 
	C204.341431,564.254150 204.056961,564.438965 196.191467,563.911865 
	C169.143524,562.099487 142.109619,560.078003 115.062805,558.247803 
	C92.826660,556.743347 70.578346,555.419739 48.338161,553.973694 
	C33.569744,553.013550 18.806170,551.978882 3.594125,550.966797 
	C16.795631,543.963928 30.403502,536.892517 44.098324,529.993774 
	C96.581734,503.555328 149.092133,477.170441 201.594589,450.769836 
	C215.773743,443.639923 229.967361,436.538788 244.142441,429.400848 
	C286.439026,408.102173 328.729492,386.791321 371.025665,365.491913 
	C371.459503,365.273438 371.938477,365.144684 372.653259,365.227661 
	C372.162445,366.574890 371.506958,367.746979 370.653778,368.751068 
	C321.164368,426.993896 271.654572,485.219452 222.159683,543.457642 
	C216.490784,550.127930 210.896042,556.861328 204.854568,564.056519 
	C207.001083,565.254333 208.350677,566.156128 209.813812,566.799927 
	C220.180359,571.361572 230.544556,575.930176 240.959564,580.379395 
	C251.975739,585.085449 263.047363,589.661682 274.094757,594.294617 
z"/>
<path fill="#2FB8E7" opacity="1.000000" stroke="none" 
	d="
M274.320892,594.031494 
	C263.047363,589.661682 251.975739,585.085449 240.959564,580.379395 
	C230.544556,575.930176 220.180359,571.361572 209.813812,566.799927 
	C208.350677,566.156128 207.001083,565.254333 204.854568,564.056519 
	C210.896042,556.861328 216.490784,550.127930 222.159683,543.457642 
	C271.654572,485.219452 321.164368,426.993896 370.653778,368.751068 
	C371.506958,367.746979 372.162445,366.574890 373.018951,365.126709 
	C374.482910,365.077454 376.076477,365.023926 377.157379,365.742035 
	C392.386444,375.859283 407.545807,386.081482 422.867432,396.577942 
	C404.628876,421.146973 386.195129,445.378815 367.872101,469.694061 
	C336.727051,511.024506 305.651703,552.407471 274.320892,594.031494 
z"/>
<path fill="#5D8B27" opacity="1.000000" stroke="none" 
	d="
M1137.708740,578.175293 
	C1132.187378,568.001709 1126.834961,557.864624 1121.893188,547.531250 
	C1111.267822,525.313354 1100.872559,502.985626 1090.349121,480.718872 
	C1073.283569,444.609283 1056.194092,408.510956 1039.098755,372.415436 
	C1038.317017,370.764954 1037.379761,369.188202 1036.311768,367.310425 
	C1038.755493,365.006195 1041.201538,362.609131 1044.086182,360.996765 
	C1053.759277,355.589783 1063.588989,350.462830 1073.709717,345.181122 
	C1090.180298,370.618774 1106.262939,396.127563 1122.428345,421.583801 
	C1148.152222,462.092010 1173.927856,502.567352 1199.695923,543.047485 
	C1201.149414,545.330750 1202.410522,547.411804 1198.919800,549.099670 
	C1179.271851,558.600098 1159.646729,568.147644 1140.002808,577.656433 
	C1139.418335,577.939331 1138.713013,577.972900 1137.708740,578.175293 
z"/>
<path fill="#AF2C35" opacity="1.000000" stroke="none" 
	d="
M629.009155,145.921463 
	C617.440125,140.716187 606.116028,135.465958 594.938293,129.920654 
	C547.475403,106.374062 500.064117,82.723633 452.615173,59.149017 
	C440.391724,53.075897 428.099762,47.140663 415.492096,41.057331 
	C416.449280,37.524662 417.484314,33.943306 419.113007,30.656088 
	C422.724884,23.366209 426.613953,16.212845 430.452881,9.037455 
	C430.866089,8.265138 431.693481,7.714387 432.693420,7.113419 
	C465.743988,20.058428 498.402985,33.019371 531.122253,45.826492 
	C575.010193,63.005325 618.945618,80.062798 662.857117,97.181595 
	C665.743164,98.306717 669.099060,99.335609 665.714111,103.337448 
	C653.999878,117.186562 642.254272,131.009064 630.506897,144.830048 
	C630.191345,145.201294 629.720032,145.440155 629.009155,145.921463 
z"/>
<path fill="#80B13A" opacity="1.000000" stroke="none" 
	d="
M1505.868408,543.754883 
	C1505.624146,543.858215 1505.426636,543.677185 1505.117065,543.323486 
	C1505.291870,543.275452 1505.595215,543.382080 1505.868408,543.754883 
z"/>
<path fill="#AF2C35" opacity="1.000000" stroke="none" 
	d="
M415.183105,42.295841 
	C415.333160,42.284710 415.512146,42.518852 415.841034,42.912983 
	C415.677277,42.982857 415.417633,42.805576 415.183105,42.295841 
z"/>
</svg>